ISO-10303-21;
HEADER;
FILE_DESCRIPTION (( 'STEP AP214' ),
    '1' );
FILE_NAME ('body.STEP',
    '2023-05-22T15:23:58',
    ( '' ),
    ( '' ),
    'SwSTEP 2.0',
    'SolidWorks 2022',
    '' );
FILE_SCHEMA (( 'AUTOMOTIVE_DESIGN' ));
ENDSEC;

DATA;
#1 = CARTESIAN_POINT ( 'NONE',  ( -71.00000000000000000, 0.000000000000000000, 46.00000000000000000 ) ) ;
#2 = ADVANCED_FACE ( 'NONE', ( #59 ), #19, .F. ) ;
#3 = CARTESIAN_POINT ( 'NONE',  ( -75.00000000000000000, 0.000000000000000000, -50.00000000000000000 ) ) ;
#4 = VECTOR ( 'NONE', #137, 1000.000000000000000 ) ;
#5 = PLANE ( 'NONE',  #419 ) ;
#6 = EDGE_LOOP ( 'NONE', ( #330, #101 ) ) ;
#7 = FACE_OUTER_BOUND ( 'NONE', #545, .T. ) ;
#8 = CARTESIAN_POINT ( 'NONE',  ( -75.00000000000000000, 730.0000000000000000, -50.00000000000000000 ) ) ;
#9 = EDGE_CURVE ( 'NONE', #510, #426, #238, .T. ) ;
#10 = DIRECTION ( 'NONE',  ( 0.000000000000000000, 0.000000000000000000, 1.000000000000000000 ) ) ;
#11 = EDGE_CURVE ( 'NONE', #566, #554, #414, .T. ) ;
#12 = FILL_AREA_STYLE ('',( #194 ) ) ;
#13 = DIRECTION ( 'NONE',  ( -0.000000000000000000, -0.000000000000000000, -1.000000000000000000 ) ) ;
#14 = ORIENTED_EDGE ( 'NONE', *, *, #11, .T. ) ;
#15 = PLANE ( 'NONE',  #346 ) ;
#16 =( LENGTH_UNIT ( ) NAMED_UNIT ( * ) SI_UNIT ( .MILLI., .METRE. ) );
#17 = AXIS2_PLACEMENT_3D ( 'NONE', #532, #571, #484 ) ;
#18 =( LENGTH_UNIT ( ) NAMED_UNIT ( * ) SI_UNIT ( .MILLI., .METRE. ) );
#19 = PLANE ( 'NONE',  #498 ) ;
#20 = ORIENTED_EDGE ( 'NONE', *, *, #97, .T. ) ;
#21 = PRODUCT_DEFINITION_CONTEXT ( 'detailed design', #441, 'design' ) ;
#22 = ORIENTED_EDGE ( 'NONE', *, *, #321, .T. ) ;
#23 = CARTESIAN_POINT ( 'NONE',  ( -75.00000000000000000, 730.0000000000000000, -50.00000000000000000 ) ) ;
#24 = AXIS2_PLACEMENT_3D ( 'NONE', #497, #326, #111 ) ;
#25 = FILL_AREA_STYLE_COLOUR ( '', #244 ) ;
#26 = DIRECTION ( 'NONE',  ( 1.000000000000000000, 0.000000000000000000, 0.000000000000000000 ) ) ;
#27 = MECHANICAL_DESIGN_GEOMETRIC_PRESENTATION_REPRESENTATION (  '', ( #285 ), #63 ) ;
#28 =( NAMED_UNIT ( * ) SI_UNIT ( $, .STERADIAN. ) SOLID_ANGLE_UNIT ( ) );
#29 = PRODUCT_RELATED_PRODUCT_CATEGORY ( 'part', '', ( #271 ) ) ;
#30 = DIRECTION ( 'NONE',  ( 1.000000000000000000, 0.000000000000000000, 0.000000000000000000 ) ) ;
#31 = EDGE_CURVE ( 'NONE', #47, #376, #190, .T. ) ;
#32 = CYLINDRICAL_SURFACE ( 'NONE', #486, 9.000000000000014211 ) ;
#33 = ORIENTED_EDGE ( 'NONE', *, *, #258, .F. ) ;
#34 = CARTESIAN_POINT ( 'NONE',  ( 5.999999999999986677, 581.8999999999999773, 16.99999999999997868 ) ) ;
#35 = DIRECTION ( 'NONE',  ( 1.000000000000000000, 0.000000000000000000, 0.000000000000000000 ) ) ;
#36 = VECTOR ( 'NONE', #443, 1000.000000000000000 ) ;
#37 = VECTOR ( 'NONE', #13, 1000.000000000000000 ) ;
#38 = DIRECTION ( 'NONE',  ( 1.000000000000000000, 0.000000000000000000, 0.000000000000000000 ) ) ;
#39 = CARTESIAN_POINT ( 'NONE',  ( -75.00000000000000000, 0.000000000000000000, -75.00000000000001421 ) ) ;
#40 = DIRECTION ( 'NONE',  ( -1.000000000000000000, -0.000000000000000000, -0.000000000000000000 ) ) ;
#41 = ORIENTED_EDGE ( 'NONE', *, *, #9, .T. ) ;
#42 = EDGE_CURVE ( 'NONE', #554, #426, #146, .T. ) ;
#43 = DIRECTION ( 'NONE',  ( 1.000000000000000000, 0.000000000000000000, 0.000000000000000000 ) ) ;
#44 = CIRCLE ( 'NONE', #24, 9.000000000000014211 ) ;
#45 = AXIS2_PLACEMENT_3D ( 'NONE', #295, #68, #379 ) ;
#46 = CARTESIAN_POINT ( 'NONE',  ( -75.00000000000000000, -4.000000000000000000, -75.00000000000001421 ) ) ;
#47 = VERTEX_POINT ( 'NONE', #329 ) ;
#48 = CARTESIAN_POINT ( 'NONE',  ( -71.00000000000000000, 0.000000000000000000, -46.00000000000000000 ) ) ;
#49 = EDGE_CURVE ( 'NONE', #228, #64, #159, .T. ) ;
#50 = CARTESIAN_POINT ( 'NONE',  ( -71.00000000000000000, 730.0000000000000000, -46.00000000000000000 ) ) ;
#51 = ADVANCED_FACE ( 'NONE', ( #104 ), #15, .F. ) ;
#52 = CARTESIAN_POINT ( 'NONE',  ( -75.00000000000000000, -4.000000000000000000, 75.00000000000001421 ) ) ;
#53 =( GEOMETRIC_REPRESENTATION_CONTEXT ( 3 ) GLOBAL_UNCERTAINTY_ASSIGNED_CONTEXT ( ( #261 ) ) GLOBAL_UNIT_ASSIGNED_CONTEXT ( ( #179, #310, #352 ) ) REPRESENTATION_CONTEXT ( 'NONE', 'WORKASPACE' ) );
#54 = CARTESIAN_POINT ( 'NONE',  ( 144.9999999999999716, -4.000000000000000000, 75.00000000000001421 ) ) ;
#55 = ORIENTED_EDGE ( 'NONE', *, *, #523, .T. ) ;
#56 = VECTOR ( 'NONE', #240, 1000.000000000000000 ) ;
#57 = ORIENTED_EDGE ( 'NONE', *, *, #448, .T. ) ;
#58 = PRESENTATION_STYLE_ASSIGNMENT (( #495 ) ) ;
#59 = FACE_OUTER_BOUND ( 'NONE', #538, .T. ) ;
#60 = VERTEX_POINT ( 'NONE', #100 ) ;
#61 = CARTESIAN_POINT ( 'NONE',  ( 0.000000000000000000, -4.000000000000000000, 0.000000000000000000 ) ) ;
#62 = MECHANICAL_DESIGN_GEOMETRIC_PRESENTATION_REPRESENTATION (  '', ( #315 ), #417 ) ;
#63 =( GEOMETRIC_REPRESENTATION_CONTEXT ( 3 ) GLOBAL_UNCERTAINTY_ASSIGNED_CONTEXT ( ( #130 ) ) GLOBAL_UNIT_ASSIGNED_CONTEXT ( ( #18, #149, #454 ) ) REPRESENTATION_CONTEXT ( 'NONE', 'WORKASPACE' ) );
#64 = VERTEX_POINT ( 'NONE', #458 ) ;
#65 = EDGE_LOOP ( 'NONE', ( #303, #167, #90, #476 ) ) ;
#66 = DIRECTION ( 'NONE',  ( 0.000000000000000000, 0.000000000000000000, 1.000000000000000000 ) ) ;
#67 = ADVANCED_FACE ( 'NONE', ( #109 ), #286, .F. ) ;
#68 = DIRECTION ( 'NONE',  ( 0.000000000000000000, 1.000000000000000000, 0.000000000000000000 ) ) ;
#69 = ORIENTED_EDGE ( 'NONE', *, *, #343, .F. ) ;
#70 = CARTESIAN_POINT ( 'NONE',  ( 75.00000000000001421, 730.0000000000000000, 46.00000000000000000 ) ) ;
#71 = EDGE_CURVE ( 'NONE', #117, #172, #453, .T. ) ;
#72 = ORIENTED_EDGE ( 'NONE', *, *, #232, .T. ) ;
#73 = VECTOR ( 'NONE', #145, 1000.000000000000000 ) ;
#74 = DIRECTION ( 'NONE',  ( -0.000000000000000000, -0.000000000000000000, -1.000000000000000000 ) ) ;
#75 = ORIENTED_EDGE ( 'NONE', *, *, #304, .F. ) ;
#76 = DIRECTION ( 'NONE',  ( -0.000000000000000000, -1.000000000000000000, -0.000000000000000000 ) ) ;
#77 = DIRECTION ( 'NONE',  ( 0.000000000000000000, 0.000000000000000000, 1.000000000000000000 ) ) ;
#78 = CARTESIAN_POINT ( 'NONE',  ( 0.000000000000000000, 0.000000000000000000, 0.000000000000000000 ) ) ;
#79 = EDGE_CURVE ( 'NONE', #353, #47, #143, .T. ) ;
#80 = FACE_OUTER_BOUND ( 'NONE', #65, .T. ) ;
#81 = LINE ( 'NONE', #489, #541 ) ;
#82 = EDGE_LOOP ( 'NONE', ( #93, #75, #113, #424, #375, #88, #301, #323 ) ) ;
#83 = LINE ( 'NONE', #521, #344 ) ;
#84 = DIRECTION ( 'NONE',  ( -3.469446951953611033E-15, -0.000000000000000000, -1.000000000000000000 ) ) ;
#85 = VECTOR ( 'NONE', #475, 1000.000000000000000 ) ;
#86 = LINE ( 'NONE', #272, #533 ) ;
#87 = FILL_AREA_STYLE ('',( #25 ) ) ;
#88 = ORIENTED_EDGE ( 'NONE', *, *, #359, .F. ) ;
#89 = DIRECTION ( 'NONE',  ( 1.000000000000000000, 0.000000000000000000, 0.000000000000000000 ) ) ;
#90 = ORIENTED_EDGE ( 'NONE', *, *, #284, .T. ) ;
#91 = FACE_OUTER_BOUND ( 'NONE', #549, .T. ) ;
#92 = VECTOR ( 'NONE', #38, 1000.000000000000000 ) ;
#93 = ORIENTED_EDGE ( 'NONE', *, *, #11, .F. ) ;
#94 = VECTOR ( 'NONE', #481, 1000.000000000000000 ) ;
#95 = CARTESIAN_POINT ( 'NONE',  ( 75.00000000000000000, 730.0000000000000000, 50.00000000000000000 ) ) ;
#96 = LINE ( 'NONE', #98, #217 ) ;
#97 = EDGE_CURVE ( 'NONE', #426, #172, #324, .T. ) ;
#98 = CARTESIAN_POINT ( 'NONE',  ( 75.00000000000000000, 730.0000000000000000, 50.00000000000000000 ) ) ;
#99 = ORIENTED_EDGE ( 'NONE', *, *, #465, .T. ) ;
#100 = CARTESIAN_POINT ( 'NONE',  ( -75.00000000000000000, 0.000000000000000000, -75.00000000000001421 ) ) ;
#101 = ORIENTED_EDGE ( 'NONE', *, *, #284, .F. ) ;
#102 = SURFACE_STYLE_USAGE ( .BOTH. , #154 ) ;
#103 = LINE ( 'NONE', #39, #173 ) ;
#104 = FACE_OUTER_BOUND ( 'NONE', #496, .T. ) ;
#105 = DIRECTION ( 'NONE',  ( -1.000000000000000000, 0.000000000000000000, 0.000000000000000000 ) ) ;
#106 = ORIENTED_EDGE ( 'NONE', *, *, #530, .F. ) ;
#107 = DIRECTION ( 'NONE',  ( -0.000000000000000000, -0.000000000000000000, 1.000000000000000000 ) ) ;
#108 = UNCERTAINTY_MEASURE_WITH_UNIT (LENGTH_MEASURE( 1.000000000000000082E-05 ), #209, 'distance_accuracy_value', 'NONE');
#109 = FACE_OUTER_BOUND ( 'NONE', #249, .T. ) ;
#110 = ORIENTED_EDGE ( 'NONE', *, *, #71, .F. ) ;
#111 = DIRECTION ( 'NONE',  ( 1.000000000000000000, 0.000000000000000000, 0.000000000000000000 ) ) ;
#112 = VECTOR ( 'NONE', #142, 1000.000000000000000 ) ;
#113 = ORIENTED_EDGE ( 'NONE', *, *, #312, .F. ) ;
#114 = EDGE_CURVE ( 'NONE', #201, #228, #96, .T. ) ;
#115 = CLOSED_SHELL ( 'NONE', ( #401, #67, #141, #563, #51, #160 ) ) ;
#116 = PLANE ( 'NONE',  #45 ) ;
#117 = VERTEX_POINT ( 'NONE', #544 ) ;
#118 = DIRECTION ( 'NONE',  ( -0.000000000000000000, 1.000000000000000000, -0.000000000000000000 ) ) ;
#119 = ORIENTED_EDGE ( 'NONE', *, *, #31, .F. ) ;
#120 = CARTESIAN_POINT ( 'NONE',  ( -75.00000000000000000, 730.0000000000000000, 50.00000000000000000 ) ) ;
#121 = PRESENTATION_STYLE_ASSIGNMENT (( #511 ) ) ;
#122 = LINE ( 'NONE', #469, #316 ) ;
#123 = LINE ( 'NONE', #155, #564 ) ;
#124 = ORIENTED_EDGE ( 'NONE', *, *, #448, .F. ) ;
#125 = AXIS2_PLACEMENT_3D ( 'NONE', #263, #252, #208 ) ;
#126 = ORIENTED_EDGE ( 'NONE', *, *, #79, .F. ) ;
#127 = LINE ( 'NONE', #305, #85 ) ;
#128 = VERTEX_POINT ( 'NONE', #449 ) ;
#129 = APPLICATION_PROTOCOL_DEFINITION ( 'draft international standard', 'automotive_design', 1998, #363 ) ;
#130 = UNCERTAINTY_MEASURE_WITH_UNIT (LENGTH_MEASURE( 1.000000000000000082E-05 ), #18, 'distance_accuracy_value', 'NONE');
#131 = CARTESIAN_POINT ( 'NONE',  ( -71.00000000000000000, 0.000000000000000000, -46.00000000000000000 ) ) ;
#132 = CIRCLE ( 'NONE', #17, 9.000000000000012434 ) ;
#133 = CARTESIAN_POINT ( 'NONE',  ( -71.00000000000000000, 730.0000000000000000, 46.00000000000000000 ) ) ;
#134 = ORIENTED_EDGE ( 'NONE', *, *, #523, .F. ) ;
#135 = LINE ( 'NONE', #396, #398 ) ;
#136 = DIRECTION ( 'NONE',  ( 0.000000000000000000, 0.000000000000000000, 1.000000000000000000 ) ) ;
#137 = DIRECTION ( 'NONE',  ( -0.000000000000000000, 1.000000000000000000, -0.000000000000000000 ) ) ;
#138 = AXIS2_PLACEMENT_3D ( 'NONE', #220, #394, #89 ) ;
#139 = CARTESIAN_POINT ( 'NONE',  ( 75.00000000000000000, 730.0000000000000000, -50.00000000000000000 ) ) ;
#140 = AXIS2_PLACEMENT_3D ( 'NONE', #198, #368, #455 ) ;
#141 = ADVANCED_FACE ( 'NONE', ( #327 ), #281, .F. ) ;
#142 = DIRECTION ( 'NONE',  ( -0.000000000000000000, -1.000000000000000000, -0.000000000000000000 ) ) ;
#143 = LINE ( 'NONE', #52, #293 ) ;
#144 = ORIENTED_EDGE ( 'NONE', *, *, #273, .F. ) ;
#145 = DIRECTION ( 'NONE',  ( 0.000000000000000000, 0.000000000000000000, 1.000000000000000000 ) ) ;
#146 = LINE ( 'NONE', #3, #56 ) ;
#147 = SURFACE_STYLE_FILL_AREA ( #456 ) ;
#148 = ORIENTED_EDGE ( 'NONE', *, *, #171, .T. ) ;
#149 =( NAMED_UNIT ( * ) PLANE_ANGLE_UNIT ( ) SI_UNIT ( $, .RADIAN. ) );
#150 = ADVANCED_FACE ( 'NONE', ( #319 ), #234, .T. ) ;
#151 = VECTOR ( 'NONE', #202, 1000.000000000000000 ) ;
#152 = DIRECTION ( 'NONE',  ( -1.000000000000000000, -0.000000000000000000, -0.000000000000000000 ) ) ;
#153 = ORIENTED_EDGE ( 'NONE', *, *, #321, .F. ) ;
#154 = SURFACE_SIDE_STYLE ('',( #410 ) ) ;
#155 = CARTESIAN_POINT ( 'NONE',  ( -71.00000000000000000, 730.0000000000000000, 46.00000000000000000 ) ) ;
#156 = DIRECTION ( 'NONE',  ( 0.000000000000000000, 1.000000000000000000, 0.000000000000000000 ) ) ;
#157 =( NAMED_UNIT ( * ) PLANE_ANGLE_UNIT ( ) SI_UNIT ( $, .RADIAN. ) );
#158 = ORIENTED_EDGE ( 'NONE', *, *, #446, .T. ) ;
#159 = LINE ( 'NONE', #535, #553 ) ;
#160 = ADVANCED_FACE ( 'NONE', ( #507 ), #116, .T. ) ;
#161 = ORIENTED_EDGE ( 'NONE', *, *, #49, .T. ) ;
#162 = VERTEX_POINT ( 'NONE', #166 ) ;
#163 = EDGE_CURVE ( 'NONE', #162, #225, #385, .T. ) ;
#164 = CARTESIAN_POINT ( 'NONE',  ( 144.9999999999999716, 0.000000000000000000, 75.00000000000001421 ) ) ;
#165 = CARTESIAN_POINT ( 'NONE',  ( -75.00000000000000000, 730.0000000000000000, 50.00000000000000000 ) ) ;
#166 = CARTESIAN_POINT ( 'NONE',  ( 144.9999999999999716, 0.000000000000000000, -75.00000000000001421 ) ) ;
#167 = ORIENTED_EDGE ( 'NONE', *, *, #223, .T. ) ;
#168 = DIRECTION ( 'NONE',  ( 0.000000000000000000, 0.000000000000000000, 1.000000000000000000 ) ) ;
#169 = VERTEX_POINT ( 'NONE', #340 ) ;
#170 = CARTESIAN_POINT ( 'NONE',  ( 15.00000000000000000, 581.8999999999999773, 16.99999999999997868 ) ) ;
#171 = EDGE_CURVE ( 'NONE', #128, #386, #123, .T. ) ;
#172 = VERTEX_POINT ( 'NONE', #504 ) ;
#173 = VECTOR ( 'NONE', #26, 1000.000000000000000 ) ;
#174 = CIRCLE ( 'NONE', #138, 9.000000000000014211 ) ;
#175 = UNCERTAINTY_MEASURE_WITH_UNIT (LENGTH_MEASURE( 1.000000000000000082E-05 ), #16, 'distance_accuracy_value', 'NONE');
#176 = ORIENTED_EDGE ( 'NONE', *, *, #79, .T. ) ;
#177 = PLANE ( 'NONE',  #242 ) ;
#178 = LINE ( 'NONE', #569, #112 ) ;
#179 =( LENGTH_UNIT ( ) NAMED_UNIT ( * ) SI_UNIT ( .MILLI., .METRE. ) );
#180 = ORIENTED_EDGE ( 'NONE', *, *, #546, .F. ) ;
#181 = LINE ( 'NONE', #131, #92 ) ;
#182 = PRODUCT_DEFINITION_FORMATION_WITH_SPECIFIED_SOURCE ( 'ANY', '', #271, .NOT_KNOWN. ) ;
#183 = PRODUCT_DEFINITION ( 'UNKNOWN', '', #182, #21 ) ;
#184 = FACE_OUTER_BOUND ( 'NONE', #189, .T. ) ;
#185 = CARTESIAN_POINT ( 'NONE',  ( 75.00000000000000000, 730.0000000000000000, -50.00000000000000000 ) ) ;
#186 = DIRECTION ( 'NONE',  ( 3.469446951953611428E-15, 0.000000000000000000, 1.000000000000000000 ) ) ;
#187 = VECTOR ( 'NONE', #76, 1000.000000000000000 ) ;
#188 = CARTESIAN_POINT ( 'NONE',  ( -75.00000000000000000, 0.000000000000000000, 50.00000000000000000 ) ) ;
#189 = EDGE_LOOP ( 'NONE', ( #215, #193, #33, #457 ) ) ;
#190 = LINE ( 'NONE', #547, #37 ) ;
#191 = FILL_AREA_STYLE_COLOUR ( '', #418 ) ;
#192 = CARTESIAN_POINT ( 'NONE',  ( 75.00000000000000000, 0.000000000000000000, -50.00000000000000000 ) ) ;
#193 = ORIENTED_EDGE ( 'NONE', *, *, #9, .F. ) ;
#194 = FILL_AREA_STYLE_COLOUR ( '', #480 ) ;
#195 = AXIS2_PLACEMENT_3D ( 'NONE', #170, #438, #30 ) ;
#196 = CARTESIAN_POINT ( 'NONE',  ( -75.00000000000000000, 730.0000000000000000, 50.00000000000000000 ) ) ;
#197 = AXIS2_PLACEMENT_3D ( 'NONE', #243, #279, #408 ) ;
#198 = CARTESIAN_POINT ( 'NONE',  ( -75.00000000000000000, -4.000000000000000000, 75.00000000000001421 ) ) ;
#199 = EDGE_CURVE ( 'NONE', #345, #517, #362, .T. ) ;
#200 = VECTOR ( 'NONE', #274, 1000.000000000000000 ) ;
#201 = VERTEX_POINT ( 'NONE', #331 ) ;
#202 = DIRECTION ( 'NONE',  ( -1.000000000000000000, -0.000000000000000000, -0.000000000000000000 ) ) ;
#203 = MANIFOLD_SOLID_BREP ( 'Cut-Extrude1', #245 ) ;
#204 = CYLINDRICAL_SURFACE ( 'NONE', #195, 9.000000000000014211 ) ;
#205 = CARTESIAN_POINT ( 'NONE',  ( -75.00000000000000000, 730.0000000000000000, -50.00000000000000000 ) ) ;
#206 = DIRECTION ( 'NONE',  ( 0.000000000000000000, -0.000000000000000000, 1.000000000000000000 ) ) ;
#207 = ORIENTED_EDGE ( 'NONE', *, *, #518, .T. ) ;
#208 = DIRECTION ( 'NONE',  ( 1.000000000000000000, 0.000000000000000000, -0.000000000000000000 ) ) ;
#209 =( LENGTH_UNIT ( ) NAMED_UNIT ( * ) SI_UNIT ( .MILLI., .METRE. ) );
#210 = CARTESIAN_POINT ( 'NONE',  ( 144.9999999999999716, -4.000000000000000000, -75.00000000000001421 ) ) ;
#211 = ORIENTED_EDGE ( 'NONE', *, *, #377, .T. ) ;
#212 = LINE ( 'NONE', #34, #488 ) ;
#213 = PRODUCT_CONTEXT ( 'NONE', #363, 'mechanical' ) ;
#214 = DIRECTION ( 'NONE',  ( 0.000000000000000000, 1.000000000000000000, 0.000000000000000000 ) ) ;
#215 = ORIENTED_EDGE ( 'NONE', *, *, #42, .T. ) ;
#216 = AXIS2_PLACEMENT_3D ( 'NONE', #527, #311, #186 ) ;
#217 = VECTOR ( 'NONE', #288, 1000.000000000000000 ) ;
#218 = ADVANCED_FACE ( 'NONE', ( #347, #452 ), #382, .F. ) ;
#219 = ORIENTED_EDGE ( 'NONE', *, *, #307, .F. ) ;
#220 = CARTESIAN_POINT ( 'NONE',  ( 15.00000000000000000, 581.8999999999999773, 46.00000000000000000 ) ) ;
#221 = SHAPE_DEFINITION_REPRESENTATION ( #276, #551 ) ;
#222 = FACE_OUTER_BOUND ( 'NONE', #82, .T. ) ;
#223 = EDGE_CURVE ( 'NONE', #515, #517, #212, .T. ) ;
#224 = CARTESIAN_POINT ( 'NONE',  ( -71.00000000000000000, 730.0000000000000000, -46.00000000000000000 ) ) ;
#225 = VERTEX_POINT ( 'NONE', #164 ) ;
#226 = LINE ( 'NONE', #224, #468 ) ;
#227 = VECTOR ( 'NONE', #537, 1000.000000000000000 ) ;
#228 = VERTEX_POINT ( 'NONE', #70 ) ;
#229 = LINE ( 'NONE', #95, #514 ) ;
#230 = CARTESIAN_POINT ( 'NONE',  ( 144.9999999999999716, -4.000000000000000000, -75.00000000000001421 ) ) ;
#231 = DIRECTION ( 'NONE',  ( -0.000000000000000000, -1.000000000000000000, -0.000000000000000000 ) ) ;
#232 = EDGE_CURVE ( 'NONE', #540, #566, #427, .T. ) ;
#233 = PRESENTATION_LAYER_ASSIGNMENT (  '', '', ( #285 ) ) ;
#234 = PLANE ( 'NONE',  #436 ) ;
#235 = EDGE_LOOP ( 'NONE', ( #207, #364, #292, #99, #246, #262, #148, #341 ) ) ;
#236 = DIRECTION ( 'NONE',  ( 0.000000000000000000, 0.000000000000000000, -1.000000000000000000 ) ) ;
#237 = CARTESIAN_POINT ( 'NONE',  ( 144.9999999999999716, -4.000000000000000000, -75.00000000000001421 ) ) ;
#238 = LINE ( 'NONE', #8, #227 ) ;
#239 = ADVANCED_FACE ( 'NONE', ( #434, #513 ), #177, .F. ) ;
#240 = DIRECTION ( 'NONE',  ( -1.000000000000000000, -0.000000000000000000, -0.000000000000000000 ) ) ;
#241 = EDGE_LOOP ( 'NONE', ( #411, #536, #393, #403 ) ) ;
#242 = AXIS2_PLACEMENT_3D ( 'NONE', #120, #471, #567 ) ;
#243 = CARTESIAN_POINT ( 'NONE',  ( -75.00000000000000000, -4.000000000000000000, -75.00000000000001421 ) ) ;
#244 = COLOUR_RGB ( '',0.7921568627450980005, 0.8196078431372548767, 0.9333333333333333481 ) ;
#245 = CLOSED_SHELL ( 'NONE', ( #568, #335, #356, #264, #239, #539, #218, #248, #2, #150, #425, #522 ) ) ;
#246 = ORIENTED_EDGE ( 'NONE', *, *, #114, .T. ) ;
#247 = STYLED_ITEM ( 'NONE', ( #58 ), #405 ) ;
#248 = ADVANCED_FACE ( 'NONE', ( #432 ), #255, .F. ) ;
#249 = EDGE_LOOP ( 'NONE', ( #421, #153, #126, #328 ) ) ;
#250 = CARTESIAN_POINT ( 'NONE',  ( 75.00000000000000000, 730.0000000000000000, 50.00000000000000000 ) ) ;
#251 = ORIENTED_EDGE ( 'NONE', *, *, #283, .T. ) ;
#252 = DIRECTION ( 'NONE',  ( 0.000000000000000000, 0.000000000000000000, 1.000000000000000000 ) ) ;
#253 = AXIS2_PLACEMENT_3D ( 'NONE', #472, #77, #259 ) ;
#254 = ORIENTED_EDGE ( 'NONE', *, *, #465, .F. ) ;
#255 = PLANE ( 'NONE',  #524 ) ;
#256 = LINE ( 'NONE', #210, #73 ) ;
#257 = ORIENTED_EDGE ( 'NONE', *, *, #163, .T. ) ;
#258 = EDGE_CURVE ( 'NONE', #294, #510, #519, .T. ) ;
#259 = DIRECTION ( 'NONE',  ( 1.000000000000000000, 0.000000000000000000, 0.000000000000000000 ) ) ;
#260 = FACE_OUTER_BOUND ( 'NONE', #241, .T. ) ;
#261 = UNCERTAINTY_MEASURE_WITH_UNIT (LENGTH_MEASURE( 1.000000000000000082E-05 ), #179, 'distance_accuracy_value', 'NONE');
#262 = ORIENTED_EDGE ( 'NONE', *, *, #423, .T. ) ;
#263 = CARTESIAN_POINT ( 'NONE',  ( -71.00000000000000000, 730.0000000000000000, 46.00000000000000000 ) ) ;
#264 = ADVANCED_FACE ( 'NONE', ( #555 ), #573, .F. ) ;
#265 = DIRECTION ( 'NONE',  ( -0.000000000000000000, 0.000000000000000000, 1.000000000000000000 ) ) ;
#266 = DIRECTION ( 'NONE',  ( 3.469446951953611033E-15, 0.000000000000000000, -1.000000000000000000 ) ) ;
#267 = AXIS2_PLACEMENT_3D ( 'NONE', #314, #440, #270 ) ;
#268 = PLANE ( 'NONE',  #216 ) ;
#269 = EDGE_CURVE ( 'NONE', #64, #470, #135, .T. ) ;
#270 = DIRECTION ( 'NONE',  ( 0.000000000000000000, 0.000000000000000000, -1.000000000000000000 ) ) ;
#271 = PRODUCT ( 'body', 'body', '', ( #213 ) ) ;
#272 = CARTESIAN_POINT ( 'NONE',  ( -71.00000000000000000, 730.0000000000000000, -46.00000000000000000 ) ) ;
#273 = EDGE_CURVE ( 'NONE', #128, #470, #178, .T. ) ;
#274 = DIRECTION ( 'NONE',  ( 1.000000000000000000, 0.000000000000000000, 0.000000000000000000 ) ) ;
#275 = VECTOR ( 'NONE', #487, 1000.000000000000000 ) ;
#276 = PRODUCT_DEFINITION_SHAPE ( 'NONE', 'NONE',  #183 ) ;
#277 = ORIENTED_EDGE ( 'NONE', *, *, #348, .T. ) ;
#278 = CARTESIAN_POINT ( 'NONE',  ( -75.00000000000000000, -4.000000000000000000, 75.00000000000001421 ) ) ;
#279 = DIRECTION ( 'NONE',  ( 1.000000000000000000, 0.000000000000000000, -0.000000000000000000 ) ) ;
#280 = EDGE_CURVE ( 'NONE', #510, #117, #477, .T. ) ;
#281 = PLANE ( 'NONE',  #197 ) ;
#282 = PRESENTATION_LAYER_ASSIGNMENT (  '', '', ( #247 ) ) ;
#283 = EDGE_CURVE ( 'NONE', #386, #367, #226, .T. ) ;
#284 = EDGE_CURVE ( 'NONE', #517, #345, #132, .T. ) ;
#285 = STYLED_ITEM ( 'NONE', ( #365 ), #203 ) ;
#286 = PLANE ( 'NONE',  #140 ) ;
#287 = ORIENTED_EDGE ( 'NONE', *, *, #359, .T. ) ;
#288 = DIRECTION ( 'NONE',  ( 3.469446951953611033E-15, 0.000000000000000000, -1.000000000000000000 ) ) ;
#289 = LINE ( 'NONE', #133, #392 ) ;
#290 = FACE_OUTER_BOUND ( 'NONE', #373, .T. ) ;
#291 = DIRECTION ( 'NONE',  ( -1.000000000000000000, 0.000000000000000000, -0.000000000000000000 ) ) ;
#292 = ORIENTED_EDGE ( 'NONE', *, *, #280, .T. ) ;
#293 = VECTOR ( 'NONE', #152, 1000.000000000000000 ) ;
#294 = VERTEX_POINT ( 'NONE', #185 ) ;
#295 = CARTESIAN_POINT ( 'NONE',  ( 0.000000000000000000, 0.000000000000000000, 0.000000000000000000 ) ) ;
#296 = EDGE_LOOP ( 'NONE', ( #464, #320, #430, #381 ) ) ;
#297 = DIRECTION ( 'NONE',  ( -1.000000000000000000, 0.000000000000000000, 0.000000000000000000 ) ) ;
#298 = EDGE_CURVE ( 'NONE', #169, #345, #83, .T. ) ;
#299 = EDGE_LOOP ( 'NONE', ( #257, #336, #124, #211 ) ) ;
#300 = AXIS2_PLACEMENT_3D ( 'NONE', #250, #505, #369 ) ;
#301 = ORIENTED_EDGE ( 'NONE', *, *, #97, .F. ) ;
#302 = VECTOR ( 'NONE', #501, 1000.000000000000000 ) ;
#303 = ORIENTED_EDGE ( 'NONE', *, *, #546, .T. ) ;
#304 = EDGE_CURVE ( 'NONE', #367, #566, #181, .T. ) ;
#305 = CARTESIAN_POINT ( 'NONE',  ( -75.00000000000000000, -4.000000000000000000, -75.00000000000001421 ) ) ;
#306 = DIRECTION ( 'NONE',  ( -1.000000000000000000, -0.000000000000000000, -0.000000000000000000 ) ) ;
#307 = EDGE_CURVE ( 'NONE', #515, #169, #174, .T. ) ;
#308 = PLANE ( 'NONE',  #561 ) ;
#309 = DIRECTION ( 'NONE',  ( -0.000000000000000000, -1.000000000000000000, -0.000000000000000000 ) ) ;
#310 =( NAMED_UNIT ( * ) PLANE_ANGLE_UNIT ( ) SI_UNIT ( $, .RADIAN. ) );
#311 = DIRECTION ( 'NONE',  ( -1.000000000000000000, 0.000000000000000000, 3.469446951953611428E-15 ) ) ;
#312 = EDGE_CURVE ( 'NONE', #470, #367, #355, .T. ) ;
#313 = CARTESIAN_POINT ( 'NONE',  ( -75.00000000000000000, 0.000000000000000000, 50.00000000000000000 ) ) ;
#314 = CARTESIAN_POINT ( 'NONE',  ( -75.00000000000000000, 730.0000000000000000, 50.00000000000000000 ) ) ;
#315 = STYLED_ITEM ( 'NONE', ( #121 ), #551 ) ;
#316 = VECTOR ( 'NONE', #74, 1000.000000000000000 ) ;
#317 = CARTESIAN_POINT ( 'NONE',  ( -71.00000000000000000, 730.0000000000000000, -46.00000000000000000 ) ) ;
#318 = EDGE_CURVE ( 'NONE', #386, #540, #86, .T. ) ;
#319 = FACE_OUTER_BOUND ( 'NONE', #235, .T. ) ;
#320 = ORIENTED_EDGE ( 'NONE', *, *, #283, .F. ) ;
#321 = EDGE_CURVE ( 'NONE', #47, #459, #534, .T. ) ;
#322 = ORIENTED_EDGE ( 'NONE', *, *, #478, .F. ) ;
#323 = ORIENTED_EDGE ( 'NONE', *, *, #42, .F. ) ;
#324 = LINE ( 'NONE', #188, #526 ) ;
#325 = ORIENTED_EDGE ( 'NONE', *, *, #269, .T. ) ;
#326 = DIRECTION ( 'NONE',  ( -0.000000000000000000, -0.000000000000000000, -1.000000000000000000 ) ) ;
#327 = FACE_OUTER_BOUND ( 'NONE', #531, .T. ) ;
#328 = ORIENTED_EDGE ( 'NONE', *, *, #391, .T. ) ;
#329 = CARTESIAN_POINT ( 'NONE',  ( -75.00000000000000000, -4.000000000000000000, 75.00000000000001421 ) ) ;
#330 = ORIENTED_EDGE ( 'NONE', *, *, #199, .F. ) ;
#331 = CARTESIAN_POINT ( 'NONE',  ( 75.00000000000000000, 730.0000000000000000, 50.00000000000000000 ) ) ;
#332 = VECTOR ( 'NONE', #499, 1000.000000000000000 ) ;
#333 = DIRECTION ( 'NONE',  ( 0.000000000000000000, 1.000000000000000000, 0.000000000000000000 ) ) ;
#334 = ORIENTED_EDGE ( 'NONE', *, *, #49, .F. ) ;
#335 = ADVANCED_FACE ( 'NONE', ( #91 ), #268, .F. ) ;
#336 = ORIENTED_EDGE ( 'NONE', *, *, #391, .F. ) ;
#337 = SURFACE_SIDE_STYLE ('',( #428 ) ) ;
#338 = LINE ( 'NONE', #558, #370 ) ;
#339 = DIRECTION ( 'NONE',  ( 0.000000000000000000, -0.000000000000000000, 1.000000000000000000 ) ) ;
#340 = CARTESIAN_POINT ( 'NONE',  ( 24.00000000000001421, 581.8999999999999773, 46.00000000000000000 ) ) ;
#341 = ORIENTED_EDGE ( 'NONE', *, *, #318, .T. ) ;
#342 =( NAMED_UNIT ( * ) SI_UNIT ( $, .STERADIAN. ) SOLID_ANGLE_UNIT ( ) );
#343 = EDGE_CURVE ( 'NONE', #376, #60, #360, .T. ) ;
#344 = VECTOR ( 'NONE', #407, 1000.000000000000000 ) ;
#345 = VERTEX_POINT ( 'NONE', #400 ) ;
#346 = AXIS2_PLACEMENT_3D ( 'NONE', #61, #156, #494 ) ;
#347 = FACE_BOUND ( 'NONE', #431, .T. ) ;
#348 = EDGE_CURVE ( 'NONE', #201, #415, #229, .T. ) ;
#349 = EDGE_LOOP ( 'NONE', ( #20, #110, #416, #41 ) ) ;
#350 = DIRECTION ( 'NONE',  ( 0.000000000000000000, 0.000000000000000000, 1.000000000000000000 ) ) ;
#351 = CARTESIAN_POINT ( 'NONE',  ( -75.00000000000000000, 730.0000000000000000, 50.00000000000000000 ) ) ;
#352 =( NAMED_UNIT ( * ) SI_UNIT ( $, .STERADIAN. ) SOLID_ANGLE_UNIT ( ) );
#353 = VERTEX_POINT ( 'NONE', #572 ) ;
#354 = VECTOR ( 'NONE', #266, 1000.000000000000000 ) ;
#355 = LINE ( 'NONE', #1, #94 ) ;
#356 = ADVANCED_FACE ( 'NONE', ( #184 ), #357, .F. ) ;
#357 = PLANE ( 'NONE',  #479 ) ;
#358 = DIRECTION ( 'NONE',  ( -0.000000000000000000, 1.000000000000000000, -0.000000000000000000 ) ) ;
#359 = EDGE_CURVE ( 'NONE', #172, #415, #447, .T. ) ;
#360 = LINE ( 'NONE', #46, #36 ) ;
#361 = VECTOR ( 'NONE', #490, 1000.000000000000000 ) ;
#362 = CIRCLE ( 'NONE', #506, 9.000000000000012434 ) ;
#363 = APPLICATION_CONTEXT ( 'automotive_design' ) ;
#364 = ORIENTED_EDGE ( 'NONE', *, *, #258, .T. ) ;
#365 = PRESENTATION_STYLE_ASSIGNMENT (( #102 ) ) ;
#366 = DIRECTION ( 'NONE',  ( 0.000000000000000000, 0.000000000000000000, -1.000000000000000000 ) ) ;
#367 = VERTEX_POINT ( 'NONE', #48 ) ;
#368 = DIRECTION ( 'NONE',  ( 0.000000000000000000, 0.000000000000000000, -1.000000000000000000 ) ) ;
#369 = DIRECTION ( 'NONE',  ( -3.469446951953611428E-15, 0.000000000000000000, 1.000000000000000000 ) ) ;
#370 = VECTOR ( 'NONE', #84, 1000.000000000000000 ) ;
#371 = VECTOR ( 'NONE', #168, 1000.000000000000000 ) ;
#372 = DIRECTION ( 'NONE',  ( -0.000000000000000000, -0.000000000000000000, 1.000000000000000000 ) ) ;
#373 = EDGE_LOOP ( 'NONE', ( #493, #420, #134, #502 ) ) ;
#374 = CARTESIAN_POINT ( 'NONE',  ( -71.00000000000000000, 0.000000000000000000, 46.00000000000000000 ) ) ;
#375 = ORIENTED_EDGE ( 'NONE', *, *, #439, .F. ) ;
#376 = VERTEX_POINT ( 'NONE', #485 ) ;
#377 = EDGE_CURVE ( 'NONE', #548, #162, #404, .T. ) ;
#378 = ORIENTED_EDGE ( 'NONE', *, *, #423, .F. ) ;
#379 = DIRECTION ( 'NONE',  ( 0.000000000000000000, -0.000000000000000000, 1.000000000000000000 ) ) ;
#380 = VECTOR ( 'NONE', #231, 1000.000000000000000 ) ;
#381 = ORIENTED_EDGE ( 'NONE', *, *, #273, .T. ) ;
#382 = PLANE ( 'NONE',  #125 ) ;
#383 = CARTESIAN_POINT ( 'NONE',  ( 75.00000000000001421, 0.000000000000000000, -46.00000000000000000 ) ) ;
#384 = CARTESIAN_POINT ( 'NONE',  ( 5.999999999999986677, 581.8999999999999773, 49.99999999999999289 ) ) ;
#385 = LINE ( 'NONE', #557, #371 ) ;
#386 = VERTEX_POINT ( 'NONE', #317 ) ;
#387 =( NAMED_UNIT ( * ) PLANE_ANGLE_UNIT ( ) SI_UNIT ( $, .RADIAN. ) );
#388 = LINE ( 'NONE', #562, #354 ) ;
#389 = ORIENTED_EDGE ( 'NONE', *, *, #232, .F. ) ;
#390 = APPLICATION_PROTOCOL_DEFINITION ( 'draft international standard', 'automotive_design', 1998, #441 ) ;
#391 = EDGE_CURVE ( 'NONE', #353, #225, #409, .T. ) ;
#392 = VECTOR ( 'NONE', #306, 1000.000000000000000 ) ;
#393 = ORIENTED_EDGE ( 'NONE', *, *, #298, .T. ) ;
#394 = DIRECTION ( 'NONE',  ( -0.000000000000000000, -0.000000000000000000, -1.000000000000000000 ) ) ;
#395 = CARTESIAN_POINT ( 'NONE',  ( -75.00000000000000000, 0.000000000000000000, -50.00000000000000000 ) ) ;
#396 = CARTESIAN_POINT ( 'NONE',  ( -71.00000000000000000, 0.000000000000000000, 46.00000000000000000 ) ) ;
#397 = EDGE_LOOP ( 'NONE', ( #325, #144, #378, #161 ) ) ;
#398 = VECTOR ( 'NONE', #40, 1000.000000000000000 ) ;
#399 = PRESENTATION_LAYER_ASSIGNMENT (  '', '', ( #315 ) ) ;
#400 = CARTESIAN_POINT ( 'NONE',  ( 24.00000000000001421, 581.8999999999999773, 49.99999999999999289 ) ) ;
#401 = ADVANCED_FACE ( 'NONE', ( #491 ), #5, .F. ) ;
#402 = LINE ( 'NONE', #139, #361 ) ;
#403 = ORIENTED_EDGE ( 'NONE', *, *, #199, .T. ) ;
#404 = LINE ( 'NONE', #230, #4 ) ;
#405 = MANIFOLD_SOLID_BREP ( 'Boss-Extrude2', #115 ) ;
#406 = CARTESIAN_POINT ( 'NONE',  ( -75.00000000000000000, 0.000000000000000000, 75.00000000000001421 ) ) ;
#407 = DIRECTION ( 'NONE',  ( 0.000000000000000000, 0.000000000000000000, 1.000000000000000000 ) ) ;
#408 = DIRECTION ( 'NONE',  ( -0.000000000000000000, 0.000000000000000000, -1.000000000000000000 ) ) ;
#409 = LINE ( 'NONE', #54, #429 ) ;
#410 = SURFACE_STYLE_FILL_AREA ( #12 ) ;
#411 = ORIENTED_EDGE ( 'NONE', *, *, #223, .F. ) ;
#412 = ORIENTED_EDGE ( 'NONE', *, *, #71, .T. ) ;
#413 = CARTESIAN_POINT ( 'NONE',  ( 75.00000000000000000, 0.000000000000000000, -50.00000000000000000 ) ) ;
#414 = LINE ( 'NONE', #192, #302 ) ;
#415 = VERTEX_POINT ( 'NONE', #482 ) ;
#416 = ORIENTED_EDGE ( 'NONE', *, *, #280, .F. ) ;
#417 =( GEOMETRIC_REPRESENTATION_CONTEXT ( 3 ) GLOBAL_UNCERTAINTY_ASSIGNED_CONTEXT ( ( #108 ) ) GLOBAL_UNIT_ASSIGNED_CONTEXT ( ( #209, #387, #342 ) ) REPRESENTATION_CONTEXT ( 'NONE', 'WORKASPACE' ) );
#418 = COLOUR_RGB ( '',0.7921568627450980005, 0.8196078431372548767, 0.9333333333333333481 ) ;
#419 = AXIS2_PLACEMENT_3D ( 'NONE', #500, #105, #10 ) ;
#420 = ORIENTED_EDGE ( 'NONE', *, *, #377, .F. ) ;
#421 = ORIENTED_EDGE ( 'NONE', *, *, #530, .T. ) ;
#422 = DIRECTION ( 'NONE',  ( -1.000000000000000000, 0.000000000000000000, 0.000000000000000000 ) ) ;
#423 = EDGE_CURVE ( 'NONE', #228, #128, #289, .T. ) ;
#424 = ORIENTED_EDGE ( 'NONE', *, *, #269, .F. ) ;
#425 = ADVANCED_FACE ( 'NONE', ( #222 ), #442, .F. ) ;
#426 = VERTEX_POINT ( 'NONE', #395 ) ;
#427 = LINE ( 'NONE', #560, #187 ) ;
#428 = SURFACE_STYLE_FILL_AREA ( #87 ) ;
#429 = VECTOR ( 'NONE', #118, 1000.000000000000000 ) ;
#430 = ORIENTED_EDGE ( 'NONE', *, *, #171, .F. ) ;
#431 = EDGE_LOOP ( 'NONE', ( #180, #219 ) ) ;
#432 = FACE_OUTER_BOUND ( 'NONE', #296, .T. ) ;
#433 = ORIENTED_EDGE ( 'NONE', *, *, #518, .F. ) ;
#434 = FACE_BOUND ( 'NONE', #6, .T. ) ;
#435 = MECHANICAL_DESIGN_GEOMETRIC_PRESENTATION_REPRESENTATION (  '', ( #247 ), #565 ) ;
#436 = AXIS2_PLACEMENT_3D ( 'NONE', #463, #333, #206 ) ;
#437 = DIRECTION ( 'NONE',  ( -0.000000000000000000, -1.000000000000000000, -0.000000000000000000 ) ) ;
#438 = DIRECTION ( 'NONE',  ( 0.000000000000000000, 0.000000000000000000, 1.000000000000000000 ) ) ;
#439 = EDGE_CURVE ( 'NONE', #415, #64, #388, .T. ) ;
#440 = DIRECTION ( 'NONE',  ( 1.000000000000000000, -0.000000000000000000, 0.000000000000000000 ) ) ;
#441 = APPLICATION_CONTEXT ( 'automotive_design' ) ;
#442 = PLANE ( 'NONE',  #552 ) ;
#443 = DIRECTION ( 'NONE',  ( -0.000000000000000000, 1.000000000000000000, -0.000000000000000000 ) ) ;
#444 = LINE ( 'NONE', #165, #332 ) ;
#445 = DIRECTION ( 'NONE',  ( 1.000000000000000000, 0.000000000000000000, -0.000000000000000000 ) ) ;
#446 = EDGE_CURVE ( 'NONE', #459, #60, #122, .T. ) ;
#447 = LINE ( 'NONE', #313, #200 ) ;
#448 = EDGE_CURVE ( 'NONE', #548, #353, #256, .T. ) ;
#449 = CARTESIAN_POINT ( 'NONE',  ( -71.00000000000000000, 730.0000000000000000, 46.00000000000000000 ) ) ;
#450 = DIRECTION ( 'NONE',  ( -0.000000000000000000, -1.000000000000000000, -0.000000000000000000 ) ) ;
#451 = EDGE_LOOP ( 'NONE', ( #287, #467, #254, #412 ) ) ;
#452 = FACE_OUTER_BOUND ( 'NONE', #397, .T. ) ;
#453 = LINE ( 'NONE', #196, #380 ) ;
#454 =( NAMED_UNIT ( * ) SI_UNIT ( $, .STERADIAN. ) SOLID_ANGLE_UNIT ( ) );
#455 = DIRECTION ( 'NONE',  ( -1.000000000000000000, 0.000000000000000000, -0.000000000000000000 ) ) ;
#456 = FILL_AREA_STYLE ('',( #191 ) ) ;
#457 = ORIENTED_EDGE ( 'NONE', *, *, #460, .T. ) ;
#458 = CARTESIAN_POINT ( 'NONE',  ( 75.00000000000001421, 0.000000000000000000, 46.00000000000000000 ) ) ;
#459 = VERTEX_POINT ( 'NONE', #406 ) ;
#460 = EDGE_CURVE ( 'NONE', #294, #554, #402, .T. ) ;
#461 = PLANE ( 'NONE',  #300 ) ;
#462 = VECTOR ( 'NONE', #358, 1000.000000000000000 ) ;
#463 = CARTESIAN_POINT ( 'NONE',  ( 0.000000000000000000, 730.0000000000000000, 0.000000000000000000 ) ) ;
#464 = ORIENTED_EDGE ( 'NONE', *, *, #312, .T. ) ;
#465 = EDGE_CURVE ( 'NONE', #117, #201, #444, .T. ) ;
#466 = SURFACE_SIDE_STYLE ('',( #147 ) ) ;
#467 = ORIENTED_EDGE ( 'NONE', *, *, #348, .F. ) ;
#468 = VECTOR ( 'NONE', #309, 1000.000000000000000 ) ;
#469 = CARTESIAN_POINT ( 'NONE',  ( -75.00000000000000000, 0.000000000000000000, -75.00000000000001421 ) ) ;
#470 = VERTEX_POINT ( 'NONE', #374 ) ;
#471 = DIRECTION ( 'NONE',  ( 0.000000000000000000, 0.000000000000000000, -1.000000000000000000 ) ) ;
#472 = CARTESIAN_POINT ( 'NONE',  ( 0.000000000000000000, 0.000000000000000000, 0.000000000000000000 ) ) ;
#473 = CARTESIAN_POINT ( 'NONE',  ( 5.999999999999986677, 581.8999999999999773, 46.00000000000000000 ) ) ;
#474 = ORIENTED_EDGE ( 'NONE', *, *, #114, .F. ) ;
#475 = DIRECTION ( 'NONE',  ( 1.000000000000000000, 0.000000000000000000, 0.000000000000000000 ) ) ;
#476 = ORIENTED_EDGE ( 'NONE', *, *, #298, .F. ) ;
#477 = LINE ( 'NONE', #351, #275 ) ;
#478 = EDGE_CURVE ( 'NONE', #60, #162, #103, .T. ) ;
#479 = AXIS2_PLACEMENT_3D ( 'NONE', #529, #136, #445 ) ;
#480 = COLOUR_RGB ( '',1.000000000000000000, 1.000000000000000000, 1.000000000000000000 ) ;
#481 = DIRECTION ( 'NONE',  ( 0.000000000000000000, 0.000000000000000000, -1.000000000000000000 ) ) ;
#482 = CARTESIAN_POINT ( 'NONE',  ( 75.00000000000000000, 0.000000000000000000, 50.00000000000000000 ) ) ;
#483 = ORIENTED_EDGE ( 'NONE', *, *, #318, .F. ) ;
#484 = DIRECTION ( 'NONE',  ( -1.000000000000000000, 0.000000000000000000, 0.000000000000000000 ) ) ;
#485 = CARTESIAN_POINT ( 'NONE',  ( -75.00000000000000000, -4.000000000000000000, -75.00000000000001421 ) ) ;
#486 = AXIS2_PLACEMENT_3D ( 'NONE', #516, #350, #35 ) ;
#487 = DIRECTION ( 'NONE',  ( -0.000000000000000000, -0.000000000000000000, 1.000000000000000000 ) ) ;
#488 = VECTOR ( 'NONE', #550, 1000.000000000000000 ) ;
#489 = CARTESIAN_POINT ( 'NONE',  ( -75.00000000000000000, 0.000000000000000000, 75.00000000000001421 ) ) ;
#490 = DIRECTION ( 'NONE',  ( -0.000000000000000000, -1.000000000000000000, -0.000000000000000000 ) ) ;
#491 = FACE_OUTER_BOUND ( 'NONE', #299, .T. ) ;
#492 = DIRECTION ( 'NONE',  ( -1.000000000000000000, -0.000000000000000000, -0.000000000000000000 ) ) ;
#493 = ORIENTED_EDGE ( 'NONE', *, *, #478, .T. ) ;
#494 = DIRECTION ( 'NONE',  ( 0.000000000000000000, -0.000000000000000000, 1.000000000000000000 ) ) ;
#495 = SURFACE_STYLE_USAGE ( .BOTH. , #466 ) ;
#496 = EDGE_LOOP ( 'NONE', ( #57, #176, #525, #55 ) ) ;
#497 = CARTESIAN_POINT ( 'NONE',  ( 15.00000000000000000, 581.8999999999999773, 46.00000000000000000 ) ) ;
#498 = AXIS2_PLACEMENT_3D ( 'NONE', #50, #366, #291 ) ;
#499 = DIRECTION ( 'NONE',  ( 1.000000000000000000, 0.000000000000000000, 0.000000000000000000 ) ) ;
#500 = CARTESIAN_POINT ( 'NONE',  ( 144.9999999999999716, -4.000000000000000000, -75.00000000000001421 ) ) ;
#501 = DIRECTION ( 'NONE',  ( -3.469446951953611033E-15, -0.000000000000000000, -1.000000000000000000 ) ) ;
#502 = ORIENTED_EDGE ( 'NONE', *, *, #343, .T. ) ;
#503 = CARTESIAN_POINT ( 'NONE',  ( 75.00000000000001421, 730.0000000000000000, -46.00000000000000000 ) ) ;
#504 = CARTESIAN_POINT ( 'NONE',  ( -75.00000000000000000, 0.000000000000000000, 50.00000000000000000 ) ) ;
#505 = DIRECTION ( 'NONE',  ( -1.000000000000000000, 0.000000000000000000, -3.469446951953611428E-15 ) ) ;
#506 = AXIS2_PLACEMENT_3D ( 'NONE', #543, #107, #422 ) ;
#507 = FACE_OUTER_BOUND ( 'NONE', #542, .T. ) ;
#508 = ORIENTED_EDGE ( 'NONE', *, *, #304, .T. ) ;
#509 = CARTESIAN_POINT ( 'NONE',  ( -71.00000000000000000, 730.0000000000000000, 46.00000000000000000 ) ) ;
#510 = VERTEX_POINT ( 'NONE', #205 ) ;
#511 = SURFACE_STYLE_USAGE ( .BOTH. , #337 ) ;
#512 = ORIENTED_EDGE ( 'NONE', *, *, #446, .F. ) ;
#513 = FACE_OUTER_BOUND ( 'NONE', #451, .T. ) ;
#514 = VECTOR ( 'NONE', #437, 1000.000000000000000 ) ;
#515 = VERTEX_POINT ( 'NONE', #473 ) ;
#516 = CARTESIAN_POINT ( 'NONE',  ( 15.00000000000000000, 581.8999999999999773, 16.99999999999997868 ) ) ;
#517 = VERTEX_POINT ( 'NONE', #384 ) ;
#518 = EDGE_CURVE ( 'NONE', #540, #294, #338, .T. ) ;
#519 = LINE ( 'NONE', #23, #151 ) ;
#520 = DIRECTION ( 'NONE',  ( 1.000000000000000000, 0.000000000000000000, 0.000000000000000000 ) ) ;
#521 = CARTESIAN_POINT ( 'NONE',  ( 24.00000000000001421, 581.8999999999999773, 16.99999999999997868 ) ) ;
#522 = ADVANCED_FACE ( 'NONE', ( #260 ), #32, .F. ) ;
#523 = EDGE_CURVE ( 'NONE', #376, #548, #127, .T. ) ;
#524 = AXIS2_PLACEMENT_3D ( 'NONE', #509, #297, #66 ) ;
#525 = ORIENTED_EDGE ( 'NONE', *, *, #31, .T. ) ;
#526 = VECTOR ( 'NONE', #372, 1000.000000000000000 ) ;
#527 = CARTESIAN_POINT ( 'NONE',  ( 75.00000000000000000, 730.0000000000000000, -50.00000000000000000 ) ) ;
#528 = ORIENTED_EDGE ( 'NONE', *, *, #163, .F. ) ;
#529 = CARTESIAN_POINT ( 'NONE',  ( -75.00000000000000000, 730.0000000000000000, -50.00000000000000000 ) ) ;
#530 = EDGE_CURVE ( 'NONE', #225, #459, #81, .T. ) ;
#531 = EDGE_LOOP ( 'NONE', ( #158, #69, #119, #22 ) ) ;
#532 = CARTESIAN_POINT ( 'NONE',  ( 15.00000000000000000, 581.8999999999999773, 49.99999999999999289 ) ) ;
#533 = VECTOR ( 'NONE', #43, 1000.000000000000000 ) ;
#534 = LINE ( 'NONE', #278, #462 ) ;
#535 = CARTESIAN_POINT ( 'NONE',  ( 75.00000000000001421, 730.0000000000000000, 46.00000000000000000 ) ) ;
#536 = ORIENTED_EDGE ( 'NONE', *, *, #307, .T. ) ;
#537 = DIRECTION ( 'NONE',  ( -0.000000000000000000, -1.000000000000000000, -0.000000000000000000 ) ) ;
#538 = EDGE_LOOP ( 'NONE', ( #508, #389, #483, #251 ) ) ;
#539 = ADVANCED_FACE ( 'NONE', ( #7 ), #461, .F. ) ;
#540 = VERTEX_POINT ( 'NONE', #503 ) ;
#541 = VECTOR ( 'NONE', #492, 1000.000000000000000 ) ;
#542 = EDGE_LOOP ( 'NONE', ( #528, #322, #512, #106 ) ) ;
#543 = CARTESIAN_POINT ( 'NONE',  ( 15.00000000000000000, 581.8999999999999773, 49.99999999999999289 ) ) ;
#544 = CARTESIAN_POINT ( 'NONE',  ( -75.00000000000000000, 730.0000000000000000, 50.00000000000000000 ) ) ;
#545 = EDGE_LOOP ( 'NONE', ( #559, #334, #474, #277 ) ) ;
#546 = EDGE_CURVE ( 'NONE', #169, #515, #44, .T. ) ;
#547 = CARTESIAN_POINT ( 'NONE',  ( -75.00000000000000000, -4.000000000000000000, -75.00000000000001421 ) ) ;
#548 = VERTEX_POINT ( 'NONE', #237 ) ;
#549 = EDGE_LOOP ( 'NONE', ( #14, #570, #433, #72 ) ) ;
#550 = DIRECTION ( 'NONE',  ( 0.000000000000000000, 0.000000000000000000, 1.000000000000000000 ) ) ;
#551 = ADVANCED_BREP_SHAPE_REPRESENTATION ( 'body', ( #405, #203, #253 ), #53 ) ;
#552 = AXIS2_PLACEMENT_3D ( 'NONE', #78, #214, #339 ) ;
#553 = VECTOR ( 'NONE', #450, 1000.000000000000000 ) ;
#554 = VERTEX_POINT ( 'NONE', #413 ) ;
#555 = FACE_OUTER_BOUND ( 'NONE', #349, .T. ) ;
#556 = CARTESIAN_POINT ( 'NONE',  ( -75.00000000000000000, -4.000000000000000000, -75.00000000000001421 ) ) ;
#557 = CARTESIAN_POINT ( 'NONE',  ( 144.9999999999999716, 0.000000000000000000, -75.00000000000001421 ) ) ;
#558 = CARTESIAN_POINT ( 'NONE',  ( 75.00000000000000000, 730.0000000000000000, -50.00000000000000000 ) ) ;
#559 = ORIENTED_EDGE ( 'NONE', *, *, #439, .T. ) ;
#560 = CARTESIAN_POINT ( 'NONE',  ( 75.00000000000001421, 730.0000000000000000, -46.00000000000000000 ) ) ;
#561 = AXIS2_PLACEMENT_3D ( 'NONE', #556, #265, #520 ) ;
#562 = CARTESIAN_POINT ( 'NONE',  ( 75.00000000000000000, 0.000000000000000000, 50.00000000000000000 ) ) ;
#563 = ADVANCED_FACE ( 'NONE', ( #290 ), #308, .F. ) ;
#564 = VECTOR ( 'NONE', #236, 1000.000000000000000 ) ;
#565 =( GEOMETRIC_REPRESENTATION_CONTEXT ( 3 ) GLOBAL_UNCERTAINTY_ASSIGNED_CONTEXT ( ( #175 ) ) GLOBAL_UNIT_ASSIGNED_CONTEXT ( ( #16, #157, #28 ) ) REPRESENTATION_CONTEXT ( 'NONE', 'WORKASPACE' ) );
#566 = VERTEX_POINT ( 'NONE', #383 ) ;
#567 = DIRECTION ( 'NONE',  ( -1.000000000000000000, 0.000000000000000000, -0.000000000000000000 ) ) ;
#568 = ADVANCED_FACE ( 'NONE', ( #80 ), #204, .F. ) ;
#569 = CARTESIAN_POINT ( 'NONE',  ( -71.00000000000000000, 730.0000000000000000, 46.00000000000000000 ) ) ;
#570 = ORIENTED_EDGE ( 'NONE', *, *, #460, .F. ) ;
#571 = DIRECTION ( 'NONE',  ( -0.000000000000000000, -0.000000000000000000, 1.000000000000000000 ) ) ;
#572 = CARTESIAN_POINT ( 'NONE',  ( 144.9999999999999716, -4.000000000000000000, 75.00000000000001421 ) ) ;
#573 = PLANE ( 'NONE',  #267 ) ;
ENDSEC;
END-ISO-10303-21;
