ISO-10303-21;
HEADER;
FILE_DESCRIPTION (( 'STEP AP214' ),
    '1' );
FILE_NAME ('key.STEP',
    '2023-05-22T15:30:58',
    ( '' ),
    ( '' ),
    'SwSTEP 2.0',
    'SolidWorks 2022',
    '' );
FILE_SCHEMA (( 'AUTOMOTIVE_DESIGN' ));
ENDSEC;

DATA;
#1 = CARTESIAN_POINT ( 'NONE',  ( 6.000000000000000000, 0.000000000000000000, 40.00000000000000000 ) ) ;
#2 = ORIENTED_EDGE ( 'NONE', *, *, #18, .F. ) ;
#3 = VERTEX_POINT ( 'NONE', #49 ) ;
#4 = CLOSED_SHELL ( 'NONE', ( #74, #21, #168, #76, #100, #125 ) ) ;
#5 = EDGE_LOOP ( 'NONE', ( #191, #24, #19, #132 ) ) ;
#6 = MANIFOLD_SOLID_BREP ( 'Boss-Extrude1', #4 ) ;
#7 = FACE_OUTER_BOUND ( 'NONE', #20, .T. ) ;
#8 = AXIS2_PLACEMENT_3D ( 'NONE', #124, #57, #146 ) ;
#9 = PLANE ( 'NONE',  #27 ) ;
#10 = LINE ( 'NONE', #162, #52 ) ;
#11 = EDGE_CURVE ( 'NONE', #143, #22, #116, .T. ) ;
#12 = CARTESIAN_POINT ( 'NONE',  ( 0.000000000000000000, 6.619999999999999218, 40.00000000000000000 ) ) ;
#13 = LINE ( 'NONE', #75, #61 ) ;
#14 = MECHANICAL_DESIGN_GEOMETRIC_PRESENTATION_REPRESENTATION (  '', ( #80 ), #98 ) ;
#15 =( NAMED_UNIT ( * ) PLANE_ANGLE_UNIT ( ) SI_UNIT ( $, .RADIAN. ) );
#16 = EDGE_CURVE ( 'NONE', #39, #79, #193, .T. ) ;
#17 = CARTESIAN_POINT ( 'NONE',  ( 0.000000000000000000, 0.000000000000000000, 0.000000000000000000 ) ) ;
#18 = EDGE_CURVE ( 'NONE', #3, #143, #99, .T. ) ;
#19 = ORIENTED_EDGE ( 'NONE', *, *, #94, .F. ) ;
#20 = EDGE_LOOP ( 'NONE', ( #201, #156, #115, #25 ) ) ;
#21 = ADVANCED_FACE ( 'NONE', ( #51 ), #150, .F. ) ;
#22 = VERTEX_POINT ( 'NONE', #133 ) ;
#23 = ORIENTED_EDGE ( 'NONE', *, *, #36, .T. ) ;
#24 = ORIENTED_EDGE ( 'NONE', *, *, #11, .F. ) ;
#25 = ORIENTED_EDGE ( 'NONE', *, *, #18, .T. ) ;
#26 = CARTESIAN_POINT ( 'NONE',  ( 6.000000000000000000, 0.000000000000000000, 40.00000000000000000 ) ) ;
#27 = AXIS2_PLACEMENT_3D ( 'NONE', #69, #137, #161 ) ;
#28 = LINE ( 'NONE', #123, #179 ) ;
#29 = CARTESIAN_POINT ( 'NONE',  ( 6.000000000000000000, 0.000000000000000000, 0.000000000000000000 ) ) ;
#30 = CARTESIAN_POINT ( 'NONE',  ( 6.000000000000000000, 0.000000000000000000, 40.00000000000000000 ) ) ;
#31 = DIRECTION ( 'NONE',  ( -1.000000000000000000, 0.000000000000000000, -0.000000000000000000 ) ) ;
#32 =( NAMED_UNIT ( * ) SI_UNIT ( $, .STERADIAN. ) SOLID_ANGLE_UNIT ( ) );
#33 = VECTOR ( 'NONE', #135, 1000.000000000000000 ) ;
#34 =( NAMED_UNIT ( * ) PLANE_ANGLE_UNIT ( ) SI_UNIT ( $, .RADIAN. ) );
#35 = UNCERTAINTY_MEASURE_WITH_UNIT (LENGTH_MEASURE( 1.000000000000000082E-05 ), #182, 'distance_accuracy_value', 'NONE');
#36 = EDGE_CURVE ( 'NONE', #3, #60, #180, .T. ) ;
#37 = DIRECTION ( 'NONE',  ( -1.000000000000000000, -0.000000000000000000, -0.000000000000000000 ) ) ;
#38 =( NAMED_UNIT ( * ) PLANE_ANGLE_UNIT ( ) SI_UNIT ( $, .RADIAN. ) );
#39 = VERTEX_POINT ( 'NONE', #90 ) ;
#40 = ORIENTED_EDGE ( 'NONE', *, *, #200, .T. ) ;
#41 = PLANE ( 'NONE',  #111 ) ;
#42 =( GEOMETRIC_REPRESENTATION_CONTEXT ( 3 ) GLOBAL_UNCERTAINTY_ASSIGNED_CONTEXT ( ( #35 ) ) GLOBAL_UNIT_ASSIGNED_CONTEXT ( ( #182, #15, #77 ) ) REPRESENTATION_CONTEXT ( 'NONE', 'WORKASPACE' ) );
#43 = FACE_OUTER_BOUND ( 'NONE', #159, .T. ) ;
#44 = CARTESIAN_POINT ( 'NONE',  ( 0.000000000000000000, 0.000000000000000000, 40.00000000000000000 ) ) ;
#45 = DIRECTION ( 'NONE',  ( -0.000000000000000000, -0.000000000000000000, -1.000000000000000000 ) ) ;
#46 = EDGE_CURVE ( 'NONE', #60, #144, #13, .T. ) ;
#47 = PRESENTATION_STYLE_ASSIGNMENT (( #142 ) ) ;
#48 = APPLICATION_PROTOCOL_DEFINITION ( 'draft international standard', 'automotive_design', 1998, #171 ) ;
#49 = CARTESIAN_POINT ( 'NONE',  ( 6.000000000000000000, 6.619999999999999218, 40.00000000000000000 ) ) ;
#50 = EDGE_LOOP ( 'NONE', ( #95, #40, #68, #23 ) ) ;
#51 = FACE_OUTER_BOUND ( 'NONE', #167, .T. ) ;
#52 = VECTOR ( 'NONE', #45, 1000.000000000000000 ) ;
#53 = CARTESIAN_POINT ( 'NONE',  ( 0.000000000000000000, 0.000000000000000000, 40.00000000000000000 ) ) ;
#54 = EDGE_CURVE ( 'NONE', #60, #22, #10, .T. ) ;
#55 = LINE ( 'NONE', #197, #198 ) ;
#56 = FACE_OUTER_BOUND ( 'NONE', #5, .T. ) ;
#57 = DIRECTION ( 'NONE',  ( 1.000000000000000000, 0.000000000000000000, 0.000000000000000000 ) ) ;
#58 = CARTESIAN_POINT ( 'NONE',  ( 6.000000000000000000, 0.000000000000000000, 0.000000000000000000 ) ) ;
#59 = SURFACE_STYLE_FILL_AREA ( #78 ) ;
#60 = VERTEX_POINT ( 'NONE', #195 ) ;
#61 = VECTOR ( 'NONE', #148, 1000.000000000000000 ) ;
#62 = EDGE_CURVE ( 'NONE', #82, #79, #71, .T. ) ;
#63 = FILL_AREA_STYLE_COLOUR ( '', #107 ) ;
#64 = SURFACE_SIDE_STYLE ('',( #114 ) ) ;
#65 = ORIENTED_EDGE ( 'NONE', *, *, #16, .F. ) ;
#66 = AXIS2_PLACEMENT_3D ( 'NONE', #53, #91, #31 ) ;
#67 = ORIENTED_EDGE ( 'NONE', *, *, #200, .F. ) ;
#68 = ORIENTED_EDGE ( 'NONE', *, *, #190, .T. ) ;
#69 = CARTESIAN_POINT ( 'NONE',  ( 0.000000000000000000, 0.000000000000000000, 0.000000000000000000 ) ) ;
#70 = CARTESIAN_POINT ( 'NONE',  ( 0.000000000000000000, 0.000000000000000000, 40.00000000000000000 ) ) ;
#71 = LINE ( 'NONE', #138, #33 ) ;
#72 = PLANE ( 'NONE',  #66 ) ;
#73 = PRODUCT_DEFINITION_FORMATION_WITH_SPECIFIED_SOURCE ( 'ANY', '', #202, .NOT_KNOWN. ) ;
#74 = ADVANCED_FACE ( 'NONE', ( #43 ), #121, .F. ) ;
#75 = CARTESIAN_POINT ( 'NONE',  ( 0.000000000000000000, 0.000000000000000000, 40.00000000000000000 ) ) ;
#76 = ADVANCED_FACE ( 'NONE', ( #7 ), #110, .F. ) ;
#77 =( NAMED_UNIT ( * ) SI_UNIT ( $, .STERADIAN. ) SOLID_ANGLE_UNIT ( ) );
#78 = FILL_AREA_STYLE ('',( #63 ) ) ;
#79 = VERTEX_POINT ( 'NONE', #29 ) ;
#80 = STYLED_ITEM ( 'NONE', ( #188 ), #6 ) ;
#81 = ORIENTED_EDGE ( 'NONE', *, *, #94, .T. ) ;
#82 = VERTEX_POINT ( 'NONE', #109 ) ;
#83 = FILL_AREA_STYLE ('',( #172 ) ) ;
#84 = VECTOR ( 'NONE', #97, 1000.000000000000000 ) ;
#85 = CARTESIAN_POINT ( 'NONE',  ( 6.000000000000000000, 6.619999999999999218, 40.00000000000000000 ) ) ;
#86 = PRODUCT_DEFINITION_CONTEXT ( 'detailed design', #171, 'design' ) ;
#87 =( NAMED_UNIT ( * ) SI_UNIT ( $, .STERADIAN. ) SOLID_ANGLE_UNIT ( ) );
#88 = DIRECTION ( 'NONE',  ( 0.000000000000000000, 1.000000000000000000, 0.000000000000000000 ) ) ;
#89 = VECTOR ( 'NONE', #136, 1000.000000000000000 ) ;
#90 = CARTESIAN_POINT ( 'NONE',  ( 6.000000000000000000, 0.000000000000000000, 40.00000000000000000 ) ) ;
#91 = DIRECTION ( 'NONE',  ( 0.000000000000000000, 0.000000000000000000, -1.000000000000000000 ) ) ;
#92 = DIRECTION ( 'NONE',  ( 0.000000000000000000, 0.000000000000000000, 1.000000000000000000 ) ) ;
#93 = SURFACE_SIDE_STYLE ('',( #59 ) ) ;
#94 = EDGE_CURVE ( 'NONE', #79, #143, #199, .T. ) ;
#95 = ORIENTED_EDGE ( 'NONE', *, *, #46, .T. ) ;
#96 = STYLED_ITEM ( 'NONE', ( #47 ), #170 ) ;
#97 = DIRECTION ( 'NONE',  ( -0.000000000000000000, -0.000000000000000000, -1.000000000000000000 ) ) ;
#98 =( GEOMETRIC_REPRESENTATION_CONTEXT ( 3 ) GLOBAL_UNCERTAINTY_ASSIGNED_CONTEXT ( ( #152 ) ) GLOBAL_UNIT_ASSIGNED_CONTEXT ( ( #102, #38, #87 ) ) REPRESENTATION_CONTEXT ( 'NONE', 'WORKASPACE' ) );
#99 = LINE ( 'NONE', #85, #122 ) ;
#100 = ADVANCED_FACE ( 'NONE', ( #181 ), #72, .F. ) ;
#101 = ORIENTED_EDGE ( 'NONE', *, *, #153, .T. ) ;
#102 =( LENGTH_UNIT ( ) NAMED_UNIT ( * ) SI_UNIT ( .MILLI., .METRE. ) );
#103 = VECTOR ( 'NONE', #88, 1000.000000000000000 ) ;
#104 = EDGE_LOOP ( 'NONE', ( #81, #2, #113, #186 ) ) ;
#105 = LINE ( 'NONE', #26, #103 ) ;
#106 = CARTESIAN_POINT ( 'NONE',  ( 0.000000000000000000, 0.000000000000000000, 40.00000000000000000 ) ) ;
#107 = COLOUR_RGB ( '',0.7921568627450980005, 0.8196078431372548767, 0.9333333333333333481 ) ;
#108 = DIRECTION ( 'NONE',  ( 0.000000000000000000, -0.000000000000000000, 1.000000000000000000 ) ) ;
#109 = CARTESIAN_POINT ( 'NONE',  ( 0.000000000000000000, 0.000000000000000000, 0.000000000000000000 ) ) ;
#110 = PLANE ( 'NONE',  #173 ) ;
#111 = AXIS2_PLACEMENT_3D ( 'NONE', #30, #177, #92 ) ;
#112 = PRODUCT_RELATED_PRODUCT_CATEGORY ( 'part', '', ( #202 ) ) ;
#113 = ORIENTED_EDGE ( 'NONE', *, *, #190, .F. ) ;
#114 = SURFACE_STYLE_FILL_AREA ( #83 ) ;
#115 = ORIENTED_EDGE ( 'NONE', *, *, #36, .F. ) ;
#116 = LINE ( 'NONE', #192, #140 ) ;
#117 = AXIS2_PLACEMENT_3D ( 'NONE', #106, #196, #108 ) ;
#118 = CARTESIAN_POINT ( 'NONE',  ( 6.000000000000000000, 6.619999999999999218, 0.000000000000000000 ) ) ;
#119 = PRODUCT_DEFINITION_SHAPE ( 'NONE', 'NONE',  #184 ) ;
#120 = DIRECTION ( 'NONE',  ( 1.000000000000000000, 0.000000000000000000, 0.000000000000000000 ) ) ;
#121 = PLANE ( 'NONE',  #8 ) ;
#122 = VECTOR ( 'NONE', #157, 1000.000000000000000 ) ;
#123 = CARTESIAN_POINT ( 'NONE',  ( 0.000000000000000000, 0.000000000000000000, 40.00000000000000000 ) ) ;
#124 = CARTESIAN_POINT ( 'NONE',  ( 0.000000000000000000, 0.000000000000000000, 40.00000000000000000 ) ) ;
#125 = ADVANCED_FACE ( 'NONE', ( #56 ), #9, .T. ) ;
#126 = SHAPE_DEFINITION_REPRESENTATION ( #119, #170 ) ;
#127 = VECTOR ( 'NONE', #149, 1000.000000000000000 ) ;
#128 = ORIENTED_EDGE ( 'NONE', *, *, #62, .T. ) ;
#129 = SURFACE_STYLE_USAGE ( .BOTH. , #64 ) ;
#130 = UNCERTAINTY_MEASURE_WITH_UNIT (LENGTH_MEASURE( 1.000000000000000082E-05 ), #139, 'distance_accuracy_value', 'NONE');
#131 = ORIENTED_EDGE ( 'NONE', *, *, #54, .T. ) ;
#132 = ORIENTED_EDGE ( 'NONE', *, *, #62, .F. ) ;
#133 = CARTESIAN_POINT ( 'NONE',  ( 0.000000000000000000, 6.619999999999999218, 0.000000000000000000 ) ) ;
#134 = AXIS2_PLACEMENT_3D ( 'NONE', #17, #187, #155 ) ;
#135 = DIRECTION ( 'NONE',  ( 1.000000000000000000, 0.000000000000000000, 0.000000000000000000 ) ) ;
#136 = DIRECTION ( 'NONE',  ( 0.000000000000000000, 1.000000000000000000, 0.000000000000000000 ) ) ;
#137 = DIRECTION ( 'NONE',  ( 0.000000000000000000, 0.000000000000000000, -1.000000000000000000 ) ) ;
#138 = CARTESIAN_POINT ( 'NONE',  ( 0.000000000000000000, 0.000000000000000000, 0.000000000000000000 ) ) ;
#139 =( LENGTH_UNIT ( ) NAMED_UNIT ( * ) SI_UNIT ( .MILLI., .METRE. ) );
#140 = VECTOR ( 'NONE', #37, 1000.000000000000000 ) ;
#141 = EDGE_CURVE ( 'NONE', #22, #82, #55, .T. ) ;
#142 = SURFACE_STYLE_USAGE ( .BOTH. , #93 ) ;
#143 = VERTEX_POINT ( 'NONE', #118 ) ;
#144 = VERTEX_POINT ( 'NONE', #44 ) ;
#145 = APPLICATION_CONTEXT ( 'automotive_design' ) ;
#146 = DIRECTION ( 'NONE',  ( 0.000000000000000000, 0.000000000000000000, -1.000000000000000000 ) ) ;
#147 = LINE ( 'NONE', #70, #189 ) ;
#148 = DIRECTION ( 'NONE',  ( -0.000000000000000000, -1.000000000000000000, -0.000000000000000000 ) ) ;
#149 = DIRECTION ( 'NONE',  ( -1.000000000000000000, -0.000000000000000000, -0.000000000000000000 ) ) ;
#150 = PLANE ( 'NONE',  #117 ) ;
#151 = ORIENTED_EDGE ( 'NONE', *, *, #141, .T. ) ;
#152 = UNCERTAINTY_MEASURE_WITH_UNIT (LENGTH_MEASURE( 1.000000000000000082E-05 ), #102, 'distance_accuracy_value', 'NONE');
#153 = EDGE_CURVE ( 'NONE', #144, #82, #28, .T. ) ;
#154 = PRESENTATION_LAYER_ASSIGNMENT (  '', '', ( #80 ) ) ;
#155 = DIRECTION ( 'NONE',  ( 1.000000000000000000, 0.000000000000000000, 0.000000000000000000 ) ) ;
#156 = ORIENTED_EDGE ( 'NONE', *, *, #54, .F. ) ;
#157 = DIRECTION ( 'NONE',  ( -0.000000000000000000, -0.000000000000000000, -1.000000000000000000 ) ) ;
#158 = ORIENTED_EDGE ( 'NONE', *, *, #46, .F. ) ;
#159 = EDGE_LOOP ( 'NONE', ( #151, #175, #158, #131 ) ) ;
#160 = CARTESIAN_POINT ( 'NONE',  ( 0.000000000000000000, 6.619999999999999218, 40.00000000000000000 ) ) ;
#161 = DIRECTION ( 'NONE',  ( -1.000000000000000000, 0.000000000000000000, -0.000000000000000000 ) ) ;
#162 = CARTESIAN_POINT ( 'NONE',  ( 0.000000000000000000, 6.619999999999999218, 40.00000000000000000 ) ) ;
#163 = FACE_OUTER_BOUND ( 'NONE', #104, .T. ) ;
#164 = DIRECTION ( 'NONE',  ( 0.000000000000000000, -1.000000000000000000, 0.000000000000000000 ) ) ;
#165 = COLOUR_RGB ( '',0.2509803921568627416, 0.2509803921568627416, 0.2509803921568627416 ) ;
#166 = PRODUCT_CONTEXT ( 'NONE', #145, 'mechanical' ) ;
#167 = EDGE_LOOP ( 'NONE', ( #128, #65, #67, #101 ) ) ;
#168 = ADVANCED_FACE ( 'NONE', ( #163 ), #41, .F. ) ;
#169 =( GEOMETRIC_REPRESENTATION_CONTEXT ( 3 ) GLOBAL_UNCERTAINTY_ASSIGNED_CONTEXT ( ( #130 ) ) GLOBAL_UNIT_ASSIGNED_CONTEXT ( ( #139, #34, #32 ) ) REPRESENTATION_CONTEXT ( 'NONE', 'WORKASPACE' ) );
#170 = ADVANCED_BREP_SHAPE_REPRESENTATION ( 'key', ( #6, #134 ), #169 ) ;
#171 = APPLICATION_CONTEXT ( 'automotive_design' ) ;
#172 = FILL_AREA_STYLE_COLOUR ( '', #165 ) ;
#173 = AXIS2_PLACEMENT_3D ( 'NONE', #12, #164, #176 ) ;
#174 = MECHANICAL_DESIGN_GEOMETRIC_PRESENTATION_REPRESENTATION (  '', ( #96 ), #42 ) ;
#175 = ORIENTED_EDGE ( 'NONE', *, *, #153, .F. ) ;
#176 = DIRECTION ( 'NONE',  ( 0.000000000000000000, -0.000000000000000000, -1.000000000000000000 ) ) ;
#177 = DIRECTION ( 'NONE',  ( -1.000000000000000000, 0.000000000000000000, 0.000000000000000000 ) ) ;
#178 = DIRECTION ( 'NONE',  ( -0.000000000000000000, -0.000000000000000000, -1.000000000000000000 ) ) ;
#179 = VECTOR ( 'NONE', #178, 1000.000000000000000 ) ;
#180 = LINE ( 'NONE', #160, #127 ) ;
#181 = FACE_OUTER_BOUND ( 'NONE', #50, .T. ) ;
#182 =( LENGTH_UNIT ( ) NAMED_UNIT ( * ) SI_UNIT ( .MILLI., .METRE. ) );
#183 = PRESENTATION_LAYER_ASSIGNMENT (  '', '', ( #96 ) ) ;
#184 = PRODUCT_DEFINITION ( 'UNKNOWN', '', #73, #86 ) ;
#185 = APPLICATION_PROTOCOL_DEFINITION ( 'draft international standard', 'automotive_design', 1998, #145 ) ;
#186 = ORIENTED_EDGE ( 'NONE', *, *, #16, .T. ) ;
#187 = DIRECTION ( 'NONE',  ( 0.000000000000000000, 0.000000000000000000, 1.000000000000000000 ) ) ;
#188 = PRESENTATION_STYLE_ASSIGNMENT (( #129 ) ) ;
#189 = VECTOR ( 'NONE', #120, 1000.000000000000000 ) ;
#190 = EDGE_CURVE ( 'NONE', #39, #3, #105, .T. ) ;
#191 = ORIENTED_EDGE ( 'NONE', *, *, #141, .F. ) ;
#192 = CARTESIAN_POINT ( 'NONE',  ( 0.000000000000000000, 6.619999999999999218, 0.000000000000000000 ) ) ;
#193 = LINE ( 'NONE', #1, #84 ) ;
#194 = DIRECTION ( 'NONE',  ( -0.000000000000000000, -1.000000000000000000, -0.000000000000000000 ) ) ;
#195 = CARTESIAN_POINT ( 'NONE',  ( 0.000000000000000000, 6.619999999999999218, 40.00000000000000000 ) ) ;
#196 = DIRECTION ( 'NONE',  ( 0.000000000000000000, 1.000000000000000000, 0.000000000000000000 ) ) ;
#197 = CARTESIAN_POINT ( 'NONE',  ( 0.000000000000000000, 0.000000000000000000, 0.000000000000000000 ) ) ;
#198 = VECTOR ( 'NONE', #194, 1000.000000000000000 ) ;
#199 = LINE ( 'NONE', #58, #89 ) ;
#200 = EDGE_CURVE ( 'NONE', #144, #39, #147, .T. ) ;
#201 = ORIENTED_EDGE ( 'NONE', *, *, #11, .T. ) ;
#202 = PRODUCT ( 'key', 'key', '', ( #166 ) ) ;
ENDSEC;
END-ISO-10303-21;
