ISO-10303-21;
HEADER;
FILE_DESCRIPTION (( 'STEP AP214' ),
    '1' );
FILE_NAME ('lock holder.STEP',
    '2023-05-22T15:24:35',
    ( '' ),
    ( '' ),
    'SwSTEP 2.0',
    'SolidWorks 2022',
    '' );
FILE_SCHEMA (( 'AUTOMOTIVE_DESIGN' ));
ENDSEC;

DATA;
#1 = FACE_OUTER_BOUND ( 'NONE', #293, .T. ) ;
#2 = CIRCLE ( 'NONE', #326, 2.999999999999999112 ) ;
#3 = CARTESIAN_POINT ( 'NONE',  ( 10.90000000000000213, 4.592425496802573972E-16, -7.500000000000000000 ) ) ;
#4 = ADVANCED_FACE ( 'NONE', ( #235, #44 ), #79, .F. ) ;
#5 =( NAMED_UNIT ( * ) SI_UNIT ( $, .STERADIAN. ) SOLID_ANGLE_UNIT ( ) );
#6 = PRESENTATION_STYLE_ASSIGNMENT (( #346 ) ) ;
#7 = PLANE ( 'NONE',  #82 ) ;
#8 = DIRECTION ( 'NONE',  ( -0.000000000000000000, -1.000000000000000000, -0.000000000000000000 ) ) ;
#9 = UNCERTAINTY_MEASURE_WITH_UNIT (LENGTH_MEASURE( 1.000000000000000082E-05 ), #305, 'distance_accuracy_value', 'NONE');
#10 = ORIENTED_EDGE ( 'NONE', *, *, #445, .F. ) ;
#11 = LINE ( 'NONE', #306, #344 ) ;
#12 = CIRCLE ( 'NONE', #140, 3.999999999999998224 ) ;
#13 = CARTESIAN_POINT ( 'NONE',  ( 2.900000000000001688, 0.000000000000000000, -15.00000000000000000 ) ) ;
#14 = MANIFOLD_SOLID_BREP ( 'Boss-Extrude2', #175 ) ;
#15 = EDGE_LOOP ( 'NONE', ( #128, #179, #336, #249 ) ) ;
#16 = EDGE_CURVE ( 'NONE', #471, #137, #434, .T. ) ;
#17 = CARTESIAN_POINT ( 'NONE',  ( 2.900000000000001688, 0.000000000000000000, -15.00000000000000000 ) ) ;
#18 = EDGE_CURVE ( 'NONE', #195, #149, #347, .T. ) ;
#19 = FACE_OUTER_BOUND ( 'NONE', #356, .T. ) ;
#20 = AXIS2_PLACEMENT_3D ( 'NONE', #368, #112, #110 ) ;
#21 = DIRECTION ( 'NONE',  ( -0.000000000000000000, -1.000000000000000000, -0.000000000000000000 ) ) ;
#22 = EDGE_CURVE ( 'NONE', #198, #182, #317, .T. ) ;
#23 = CARTESIAN_POINT ( 'NONE',  ( 0.000000000000000000, 20.00000000000000000, -15.00000000000000000 ) ) ;
#24 = PLANE ( 'NONE',  #352 ) ;
#25 = ADVANCED_FACE ( 'NONE', ( #146, #99 ), #131, .F. ) ;
#26 = DIRECTION ( 'NONE',  ( 0.000000000000000000, 0.000000000000000000, -1.000000000000000000 ) ) ;
#27 = VECTOR ( 'NONE', #36, 1000.000000000000000 ) ;
#28 = VECTOR ( 'NONE', #322, 1000.000000000000000 ) ;
#29 = DIRECTION ( 'NONE',  ( 0.000000000000000000, 0.000000000000000000, -1.000000000000000000 ) ) ;
#30 = VECTOR ( 'NONE', #288, 1000.000000000000000 ) ;
#31 = CARTESIAN_POINT ( 'NONE',  ( 14.90100000000000158, 17.00000000000000000, -5.500000000000000888 ) ) ;
#32 =( NAMED_UNIT ( * ) PLANE_ANGLE_UNIT ( ) SI_UNIT ( $, .RADIAN. ) );
#33 = FACE_OUTER_BOUND ( 'NONE', #268, .T. ) ;
#34 = CARTESIAN_POINT ( 'NONE',  ( 10.90000000000000213, 3.000000000000003109, -7.500000000000000000 ) ) ;
#35 = ORIENTED_EDGE ( 'NONE', *, *, #186, .F. ) ;
#36 = DIRECTION ( 'NONE',  ( -1.000000000000000000, -0.000000000000000000, -0.000000000000000000 ) ) ;
#37 = VECTOR ( 'NONE', #77, 1000.000000000000000 ) ;
#38 = CIRCLE ( 'NONE', #308, 4.000000000000000000 ) ;
#39 = LINE ( 'NONE', #199, #408 ) ;
#40 = ORIENTED_EDGE ( 'NONE', *, *, #258, .T. ) ;
#41 = DIRECTION ( 'NONE',  ( -1.000000000000000000, 0.000000000000000000, -0.000000000000000000 ) ) ;
#42 = EDGE_CURVE ( 'NONE', #149, #100, #130, .T. ) ;
#43 = FILL_AREA_STYLE ('',( #377 ) ) ;
#44 = FACE_BOUND ( 'NONE', #213, .T. ) ;
#45 = AXIS2_PLACEMENT_3D ( 'NONE', #48, #470, #426 ) ;
#46 = CARTESIAN_POINT ( 'NONE',  ( 14.90100000000000158, 3.000000000000003109, -5.500000000000000888 ) ) ;
#47 = AXIS2_PLACEMENT_3D ( 'NONE', #66, #119, #292 ) ;
#48 = CARTESIAN_POINT ( 'NONE',  ( 10.90000000000000213, 4.592425496802573972E-16, -7.500000000000000000 ) ) ;
#49 = ORIENTED_EDGE ( 'NONE', *, *, #139, .F. ) ;
#50 = ORIENTED_EDGE ( 'NONE', *, *, #16, .T. ) ;
#51 = VECTOR ( 'NONE', #291, 1000.000000000000000 ) ;
#52 = STYLED_ITEM ( 'NONE', ( #6 ), #14 ) ;
#53 = LINE ( 'NONE', #252, #243 ) ;
#54 = CARTESIAN_POINT ( 'NONE',  ( 2.900000000000001688, 0.000000000000000000, 0.000000000000000000 ) ) ;
#55 = ORIENTED_EDGE ( 'NONE', *, *, #255, .T. ) ;
#56 = DIRECTION ( 'NONE',  ( -0.000000000000000000, -1.000000000000000000, -0.000000000000000000 ) ) ;
#57 = CYLINDRICAL_SURFACE ( 'NONE', #301, 4.000000000000000000 ) ;
#58 = ORIENTED_EDGE ( 'NONE', *, *, #108, .F. ) ;
#59 = AXIS2_PLACEMENT_3D ( 'NONE', #460, #191, #327 ) ;
#60 = SURFACE_SIDE_STYLE ('',( #212 ) ) ;
#61 = CARTESIAN_POINT ( 'NONE',  ( 7.435898384862247745, 17.00000000000000000, -5.500000000000001776 ) ) ;
#62 = ORIENTED_EDGE ( 'NONE', *, *, #115, .T. ) ;
#63 = CYLINDRICAL_SURFACE ( 'NONE', #188, 4.000000000000000000 ) ;
#64 = LINE ( 'NONE', #486, #74 ) ;
#65 = VERTEX_POINT ( 'NONE', #428 ) ;
#66 = CARTESIAN_POINT ( 'NONE',  ( 10.90000000000000213, 17.00000000000000000, -7.500000000000000000 ) ) ;
#67 = CARTESIAN_POINT ( 'NONE',  ( 2.900000000000001688, 0.000000000000000000, 0.000000000000000000 ) ) ;
#68 = DIRECTION ( 'NONE',  ( -0.000000000000000000, 1.000000000000000000, 1.084202172485504311E-16 ) ) ;
#69 = DIRECTION ( 'NONE',  ( -0.000000000000000000, -1.000000000000000000, -0.000000000000000000 ) ) ;
#70 = EDGE_LOOP ( 'NONE', ( #35, #429, #241, #96, #448, #50 ) ) ;
#71 = CARTESIAN_POINT ( 'NONE',  ( 10.90000000000000213, 17.00000000000000000, -7.500000000000000000 ) ) ;
#72 = ORIENTED_EDGE ( 'NONE', *, *, #204, .T. ) ;
#73 = CARTESIAN_POINT ( 'NONE',  ( 10.90000000000000213, 3.000000000000003109, -11.50000000000000000 ) ) ;
#74 = VECTOR ( 'NONE', #107, 1000.000000000000000 ) ;
#75 = COLOUR_RGB ( '',1.000000000000000000, 1.000000000000000000, 1.000000000000000000 ) ;
#76 = ORIENTED_EDGE ( 'NONE', *, *, #42, .F. ) ;
#77 = DIRECTION ( 'NONE',  ( -1.000000000000000000, -0.000000000000000000, -0.000000000000000000 ) ) ;
#78 = EDGE_CURVE ( 'NONE', #272, #109, #345, .T. ) ;
#79 = PLANE ( 'NONE',  #454 ) ;
#80 = EDGE_LOOP ( 'NONE', ( #405, #412, #76, #89 ) ) ;
#81 = ORIENTED_EDGE ( 'NONE', *, *, #483, .T. ) ;
#82 = AXIS2_PLACEMENT_3D ( 'NONE', #46, #350, #163 ) ;
#83 = LINE ( 'NONE', #382, #118 ) ;
#84 = CARTESIAN_POINT ( 'NONE',  ( 0.000000000000000000, 0.000000000000000000, 0.000000000000000000 ) ) ;
#85 = VERTEX_POINT ( 'NONE', #304 ) ;
#86 = FACE_OUTER_BOUND ( 'NONE', #312, .T. ) ;
#87 = ADVANCED_FACE ( 'NONE', ( #274 ), #205, .F. ) ;
#88 = DIRECTION ( 'NONE',  ( 0.000000000000000000, 0.000000000000000000, 1.000000000000000000 ) ) ;
#89 = ORIENTED_EDGE ( 'NONE', *, *, #348, .T. ) ;
#90 = VECTOR ( 'NONE', #122, 1000.000000000000000 ) ;
#91 = AXIS2_PLACEMENT_3D ( 'NONE', #467, #166, #354 ) ;
#92 = CIRCLE ( 'NONE', #318, 3.999999999999998224 ) ;
#93 = EDGE_CURVE ( 'NONE', #272, #283, #409, .T. ) ;
#94 = CARTESIAN_POINT ( 'NONE',  ( 2.900000000000001688, 3.000000000000003109, -5.500000000000000888 ) ) ;
#95 = DIRECTION ( 'NONE',  ( 0.000000000000000000, 0.000000000000000000, -1.000000000000000000 ) ) ;
#96 = ORIENTED_EDGE ( 'NONE', *, *, #219, .T. ) ;
#97 = CARTESIAN_POINT ( 'NONE',  ( 10.90000000000000213, 3.000000000000003109, -7.500000000000000000 ) ) ;
#98 = DIRECTION ( 'NONE',  ( -0.000000000000000000, -1.000000000000000000, -0.000000000000000000 ) ) ;
#99 = FACE_BOUND ( 'NONE', #349, .T. ) ;
#100 = VERTEX_POINT ( 'NONE', #423 ) ;
#101 =( LENGTH_UNIT ( ) NAMED_UNIT ( * ) SI_UNIT ( .MILLI., .METRE. ) );
#102 = ORIENTED_EDGE ( 'NONE', *, *, #276, .F. ) ;
#103 = CARTESIAN_POINT ( 'NONE',  ( 0.000000000000000000, 0.000000000000000000, 0.000000000000000000 ) ) ;
#104 = ORIENTED_EDGE ( 'NONE', *, *, #340, .T. ) ;
#105 = CARTESIAN_POINT ( 'NONE',  ( 2.900000000000001688, 0.000000000000000000, 0.000000000000000000 ) ) ;
#106 = AXIS2_PLACEMENT_3D ( 'NONE', #103, #217, #364 ) ;
#107 = DIRECTION ( 'NONE',  ( -1.000000000000000000, -0.000000000000000000, -0.000000000000000000 ) ) ;
#108 = EDGE_CURVE ( 'NONE', #137, #331, #83, .T. ) ;
#109 = VERTEX_POINT ( 'NONE', #484 ) ;
#110 = DIRECTION ( 'NONE',  ( 0.000000000000000000, 0.000000000000000000, 1.000000000000000000 ) ) ;
#111 = EDGE_CURVE ( 'NONE', #109, #65, #170, .T. ) ;
#112 = DIRECTION ( 'NONE',  ( -1.000000000000000000, 0.000000000000000000, 0.000000000000000000 ) ) ;
#113 = ADVANCED_FACE ( 'NONE', ( #152 ), #63, .T. ) ;
#114 = CARTESIAN_POINT ( 'NONE',  ( 2.900000000000001688, 20.00000000000000000, 0.000000000000000000 ) ) ;
#115 = EDGE_CURVE ( 'NONE', #331, #468, #53, .T. ) ;
#116 = PRESENTATION_LAYER_ASSIGNMENT (  '', '', ( #265 ) ) ;
#117 = LINE ( 'NONE', #417, #250 ) ;
#118 = VECTOR ( 'NONE', #142, 1000.000000000000000 ) ;
#119 = DIRECTION ( 'NONE',  ( -0.000000000000000000, -1.000000000000000000, -0.000000000000000000 ) ) ;
#120 = ORIENTED_EDGE ( 'NONE', *, *, #190, .F. ) ;
#121 = CARTESIAN_POINT ( 'NONE',  ( 14.90100000000000158, 3.000000000000003553, -9.500000000000001776 ) ) ;
#122 = DIRECTION ( 'NONE',  ( 0.000000000000000000, 0.000000000000000000, -1.000000000000000000 ) ) ;
#123 = EDGE_LOOP ( 'NONE', ( #141, #365, #185, #463 ) ) ;
#124 = FACE_OUTER_BOUND ( 'NONE', #444, .T. ) ;
#125 = ORIENTED_EDGE ( 'NONE', *, *, #267, .T. ) ;
#126 = DIRECTION ( 'NONE',  ( 0.000000000000000000, 0.000000000000000000, -1.000000000000000000 ) ) ;
#127 = CIRCLE ( 'NONE', #359, 2.999999999999999112 ) ;
#128 = ORIENTED_EDGE ( 'NONE', *, *, #155, .F. ) ;
#129 = AXIS2_PLACEMENT_3D ( 'NONE', #97, #56, #436 ) ;
#130 = LINE ( 'NONE', #13, #367 ) ;
#131 = PLANE ( 'NONE',  #91 ) ;
#132 = VERTEX_POINT ( 'NONE', #23 ) ;
#133 = CARTESIAN_POINT ( 'NONE',  ( 2.900000000000001688, 17.00000000000000000, -9.500000000000001776 ) ) ;
#134 = ORIENTED_EDGE ( 'NONE', *, *, #224, .T. ) ;
#135 = EDGE_CURVE ( 'NONE', #85, #331, #180, .T. ) ;
#136 = PRODUCT_RELATED_PRODUCT_CATEGORY ( 'part', '', ( #394 ) ) ;
#137 = VERTEX_POINT ( 'NONE', #278 ) ;
#138 = ORIENTED_EDGE ( 'NONE', *, *, #18, .T. ) ;
#139 = EDGE_CURVE ( 'NONE', #100, #239, #358, .T. ) ;
#140 = AXIS2_PLACEMENT_3D ( 'NONE', #71, #375, #341 ) ;
#141 = ORIENTED_EDGE ( 'NONE', *, *, #464, .F. ) ;
#142 = DIRECTION ( 'NONE',  ( 0.000000000000000000, 1.000000000000000000, 0.000000000000000000 ) ) ;
#143 = DIRECTION ( 'NONE',  ( 0.000000000000000000, 1.000000000000000000, 0.000000000000000000 ) ) ;
#144 = CARTESIAN_POINT ( 'NONE',  ( 10.90000000000000213, 4.592425496802573972E-16, -11.50000000000000000 ) ) ;
#145 = ORIENTED_EDGE ( 'NONE', *, *, #42, .T. ) ;
#146 = FACE_OUTER_BOUND ( 'NONE', #165, .T. ) ;
#147 = APPLICATION_CONTEXT ( 'automotive_design' ) ;
#148 = ORIENTED_EDGE ( 'NONE', *, *, #93, .T. ) ;
#149 = VERTEX_POINT ( 'NONE', #17 ) ;
#150 = VECTOR ( 'NONE', #281, 1000.000000000000000 ) ;
#151 = ORIENTED_EDGE ( 'NONE', *, *, #335, .T. ) ;
#152 = FACE_OUTER_BOUND ( 'NONE', #476, .T. ) ;
#153 = DIRECTION ( 'NONE',  ( 0.000000000000000000, -1.084202172485504311E-16, 1.000000000000000000 ) ) ;
#154 = LINE ( 'NONE', #451, #424 ) ;
#155 = EDGE_CURVE ( 'NONE', #402, #231, #176, .T. ) ;
#156 = ORIENTED_EDGE ( 'NONE', *, *, #186, .T. ) ;
#157 = CARTESIAN_POINT ( 'NONE',  ( 0.000000000000000000, 20.00000000000000000, 0.000000000000000000 ) ) ;
#158 = CARTESIAN_POINT ( 'NONE',  ( 10.90000000000000213, 3.000000000000003109, -3.499999999999999556 ) ) ;
#159 = DIRECTION ( 'NONE',  ( 0.000000000000000000, 0.000000000000000000, -1.000000000000000000 ) ) ;
#160 = CYLINDRICAL_SURFACE ( 'NONE', #45, 4.000000000000000000 ) ;
#161 = VECTOR ( 'NONE', #401, 1000.000000000000000 ) ;
#162 = ORIENTED_EDGE ( 'NONE', *, *, #464, .T. ) ;
#163 = DIRECTION ( 'NONE',  ( -1.000000000000000000, 0.000000000000000000, -0.000000000000000000 ) ) ;
#164 = ADVANCED_FACE ( 'NONE', ( #366 ), #442, .F. ) ;
#165 = EDGE_LOOP ( 'NONE', ( #81, #138, #145, #398 ) ) ;
#166 = DIRECTION ( 'NONE',  ( -1.000000000000000000, 0.000000000000000000, 0.000000000000000000 ) ) ;
#167 = CIRCLE ( 'NONE', #59, 4.000000000000000000 ) ;
#168 = ORIENTED_EDGE ( 'NONE', *, *, #135, .T. ) ;
#169 = PRODUCT_DEFINITION ( 'UNKNOWN', '', #432, #242 ) ;
#170 = CIRCLE ( 'NONE', #129, 2.999999999999999112 ) ;
#171 = ORIENTED_EDGE ( 'NONE', *, *, #93, .F. ) ;
#172 = ADVANCED_FACE ( 'NONE', ( #399 ), #406, .F. ) ;
#173 = CARTESIAN_POINT ( 'NONE',  ( 10.90000000000000213, 4.592425496802573972E-16, -10.49999999999999822 ) ) ;
#174 = ORIENTED_EDGE ( 'NONE', *, *, #258, .F. ) ;
#175 = CLOSED_SHELL ( 'NONE', ( #300, #286, #113, #25, #282, #390, #172, #469, #220, #4, #87, #355, #315, #337, #164 ) ) ;
#176 = LINE ( 'NONE', #320, #30 ) ;
#177 = CARTESIAN_POINT ( 'NONE',  ( 2.900000000000001688, 17.00000000000000000, -5.500000000000000888 ) ) ;
#178 =( NAMED_UNIT ( * ) SI_UNIT ( $, .STERADIAN. ) SOLID_ANGLE_UNIT ( ) );
#179 = ORIENTED_EDGE ( 'NONE', *, *, #190, .T. ) ;
#180 = LINE ( 'NONE', #183, #433 ) ;
#181 = CARTESIAN_POINT ( 'NONE',  ( 2.900000000000001688, 0.000000000000000000, -15.00000000000000000 ) ) ;
#182 = VERTEX_POINT ( 'NONE', #73 ) ;
#183 = CARTESIAN_POINT ( 'NONE',  ( 14.90100000000000158, 17.00000000000000000, -9.500000000000001776 ) ) ;
#184 = DIRECTION ( 'NONE',  ( -1.000000000000000000, -0.000000000000000000, -0.000000000000000000 ) ) ;
#185 = ORIENTED_EDGE ( 'NONE', *, *, #328, .F. ) ;
#186 = EDGE_CURVE ( 'NONE', #455, #137, #413, .T. ) ;
#187 = PRESENTATION_LAYER_ASSIGNMENT (  '', '', ( #52 ) ) ;
#188 = AXIS2_PLACEMENT_3D ( 'NONE', #449, #363, #473 ) ;
#189 = ORIENTED_EDGE ( 'NONE', *, *, #194, .T. ) ;
#190 = EDGE_CURVE ( 'NONE', #402, #378, #197, .T. ) ;
#191 = DIRECTION ( 'NONE',  ( -0.000000000000000000, -1.000000000000000000, -0.000000000000000000 ) ) ;
#192 = DIRECTION ( 'NONE',  ( -0.000000000000000000, 1.000000000000000000, 0.000000000000000000 ) ) ;
#193 = DIRECTION ( 'NONE',  ( -0.000000000000000000, -1.000000000000000000, -0.000000000000000000 ) ) ;
#194 = EDGE_CURVE ( 'NONE', #85, #198, #92, .T. ) ;
#195 = VERTEX_POINT ( 'NONE', #105 ) ;
#196 = DIRECTION ( 'NONE',  ( 0.000000000000000000, 0.000000000000000000, 1.000000000000000000 ) ) ;
#197 = CIRCLE ( 'NONE', #47, 3.999999999999998224 ) ;
#198 = VERTEX_POINT ( 'NONE', #458 ) ;
#199 = CARTESIAN_POINT ( 'NONE',  ( 2.900000000000001688, 20.00000000000000000, 0.000000000000000000 ) ) ;
#200 = CARTESIAN_POINT ( 'NONE',  ( 10.90000000000000213, 17.00000000000000000, -4.500000000000000888 ) ) ;
#201 = SURFACE_STYLE_FILL_AREA ( #43 ) ;
#202 = VECTOR ( 'NONE', #184, 1000.000000000000000 ) ;
#203 = DIRECTION ( 'NONE',  ( 0.000000000000000000, -0.000000000000000000, -1.000000000000000000 ) ) ;
#204 = EDGE_CURVE ( 'NONE', #283, #65, #154, .T. ) ;
#205 = PLANE ( 'NONE',  #211 ) ;
#206 = ORIENTED_EDGE ( 'NONE', *, *, #348, .F. ) ;
#207 = ORIENTED_EDGE ( 'NONE', *, *, #111, .F. ) ;
#208 = EDGE_CURVE ( 'NONE', #100, #132, #227, .T. ) ;
#209 = VECTOR ( 'NONE', #456, 1000.000000000000000 ) ;
#210 = ORIENTED_EDGE ( 'NONE', *, *, #224, .F. ) ;
#211 = AXIS2_PLACEMENT_3D ( 'NONE', #121, #88, #430 ) ;
#212 = SURFACE_STYLE_FILL_AREA ( #431 ) ;
#213 = EDGE_LOOP ( 'NONE', ( #148, #435 ) ) ;
#214 = DIRECTION ( 'NONE',  ( -0.000000000000000000, -0.000000000000000000, 1.000000000000000000 ) ) ;
#215 = DIRECTION ( 'NONE',  ( -0.000000000000000000, -1.000000000000000000, -0.000000000000000000 ) ) ;
#216 = CARTESIAN_POINT ( 'NONE',  ( 0.000000000000000000, 0.000000000000000000, 0.000000000000000000 ) ) ;
#217 = DIRECTION ( 'NONE',  ( 0.000000000000000000, 0.000000000000000000, 1.000000000000000000 ) ) ;
#218 = CARTESIAN_POINT ( 'NONE',  ( 2.900000000000001688, 3.000000000000003109, -5.500000000000000888 ) ) ;
#219 = EDGE_CURVE ( 'NONE', #231, #419, #38, .T. ) ;
#220 = ADVANCED_FACE ( 'NONE', ( #298 ), #261, .T. ) ;
#221 = EDGE_LOOP ( 'NONE', ( #162, #353, #427, #125 ) ) ;
#222 = CARTESIAN_POINT ( 'NONE',  ( 2.900000000000001688, 20.00000000000000000, 0.000000000000000000 ) ) ;
#223 = CARTESIAN_POINT ( 'NONE',  ( 10.90000000000000213, 17.00000000000000000, -7.500000000000000000 ) ) ;
#224 = EDGE_CURVE ( 'NONE', #378, #468, #232, .T. ) ;
#225 = AXIS2_PLACEMENT_3D ( 'NONE', #369, #192, #329 ) ;
#226 = DIRECTION ( 'NONE',  ( -0.000000000000000000, -1.000000000000000000, -0.000000000000000000 ) ) ;
#227 = LINE ( 'NONE', #229, #254 ) ;
#228 = DIRECTION ( 'NONE',  ( -1.000000000000000000, -0.000000000000000000, -0.000000000000000000 ) ) ;
#229 = CARTESIAN_POINT ( 'NONE',  ( 2.900000000000001688, 20.00000000000000000, -15.00000000000000000 ) ) ;
#230 = AXIS2_PLACEMENT_3D ( 'NONE', #410, #69, #371 ) ;
#231 = VERTEX_POINT ( 'NONE', #158 ) ;
#232 = LINE ( 'NONE', #31, #37 ) ;
#233 = CARTESIAN_POINT ( 'NONE',  ( 14.90100000000000158, 17.00000000000000000, -9.500000000000001776 ) ) ;
#234 = EDGE_CURVE ( 'NONE', #182, #231, #167, .T. ) ;
#235 = FACE_OUTER_BOUND ( 'NONE', #319, .T. ) ;
#236 = AXIS2_PLACEMENT_3D ( 'NONE', #295, #196, #262 ) ;
#237 = DIRECTION ( 'NONE',  ( 0.000000000000000000, -1.000000000000000000, 0.000000000000000000 ) ) ;
#238 = VERTEX_POINT ( 'NONE', #297 ) ;
#239 = VERTEX_POINT ( 'NONE', #114 ) ;
#240 = DIRECTION ( 'NONE',  ( -0.000000000000000000, -1.000000000000000000, -0.000000000000000000 ) ) ;
#241 = ORIENTED_EDGE ( 'NONE', *, *, #234, .T. ) ;
#242 = PRODUCT_DEFINITION_CONTEXT ( 'detailed design', #395, 'design' ) ;
#243 = VECTOR ( 'NONE', #247, 1000.000000000000000 ) ;
#244 = ORIENTED_EDGE ( 'NONE', *, *, #135, .F. ) ;
#245 = DIRECTION ( 'NONE',  ( 0.000000000000000000, 1.084202172485504187E-16, -1.000000000000000000 ) ) ;
#246 = ORIENTED_EDGE ( 'NONE', *, *, #370, .F. ) ;
#247 = DIRECTION ( 'NONE',  ( 0.000000000000000000, 0.000000000000000000, 1.000000000000000000 ) ) ;
#248 = EDGE_CURVE ( 'NONE', #455, #182, #443, .T. ) ;
#249 = ORIENTED_EDGE ( 'NONE', *, *, #219, .F. ) ;
#250 = VECTOR ( 'NONE', #143, 1000.000000000000000 ) ;
#251 = VERTEX_POINT ( 'NONE', #263 ) ;
#252 = CARTESIAN_POINT ( 'NONE',  ( 2.900000000000001688, 17.00000000000000000, -9.500000000000001776 ) ) ;
#253 = SURFACE_STYLE_USAGE ( .BOTH. , #60 ) ;
#254 = VECTOR ( 'NONE', #462, 1000.000000000000000 ) ;
#255 = EDGE_CURVE ( 'NONE', #132, #311, #488, .T. ) ;
#256 = CARTESIAN_POINT ( 'NONE',  ( 10.90000000000000213, 17.00000000000000000, -3.500000000000001332 ) ) ;
#257 = ORIENTED_EDGE ( 'NONE', *, *, #115, .F. ) ;
#258 = EDGE_CURVE ( 'NONE', #198, #402, #12, .T. ) ;
#259 = LINE ( 'NONE', #181, #202 ) ;
#260 = FACE_OUTER_BOUND ( 'NONE', #70, .T. ) ;
#261 = PLANE ( 'NONE',  #20 ) ;
#262 = DIRECTION ( 'NONE',  ( 1.000000000000000000, 0.000000000000000000, -0.000000000000000000 ) ) ;
#263 = CARTESIAN_POINT ( 'NONE',  ( 0.000000000000000000, 0.000000000000000000, -15.00000000000000000 ) ) ;
#264 = CARTESIAN_POINT ( 'NONE',  ( 10.90000000000000213, 17.00000000000000000, -10.49999999999999822 ) ) ;
#265 = STYLED_ITEM ( 'NONE', ( #290 ), #440 ) ;
#266 = DIRECTION ( 'NONE',  ( 0.000000000000000000, 0.000000000000000000, -1.000000000000000000 ) ) ;
#267 = EDGE_CURVE ( 'NONE', #239, #311, #39, .T. ) ;
#268 = EDGE_LOOP ( 'NONE', ( #357, #206, #314, #309 ) ) ;
#269 = CARTESIAN_POINT ( 'NONE',  ( 10.90000000000000213, 17.00000000000000000, -7.500000000000000000 ) ) ;
#270 = ORIENTED_EDGE ( 'NONE', *, *, #335, .F. ) ;
#271 = APPLICATION_PROTOCOL_DEFINITION ( 'draft international standard', 'automotive_design', 1998, #147 ) ;
#272 = VERTEX_POINT ( 'NONE', #264 ) ;
#273 = ORIENTED_EDGE ( 'NONE', *, *, #22, .T. ) ;
#274 = FACE_OUTER_BOUND ( 'NONE', #465, .T. ) ;
#275 = ORIENTED_EDGE ( 'NONE', *, *, #445, .T. ) ;
#276 = EDGE_CURVE ( 'NONE', #419, #471, #338, .T. ) ;
#277 = CARTESIAN_POINT ( 'NONE',  ( 10.90000000000000213, 3.000000000000003109, -7.500000000000000000 ) ) ;
#278 = CARTESIAN_POINT ( 'NONE',  ( 2.900000000000001688, 3.000000000000003553, -9.500000000000001776 ) ) ;
#279 = LINE ( 'NONE', #67, #161 ) ;
#280 = DIRECTION ( 'NONE',  ( -0.000000000000000000, -1.000000000000000000, -0.000000000000000000 ) ) ;
#281 = DIRECTION ( 'NONE',  ( 0.000000000000000000, 0.000000000000000000, -1.000000000000000000 ) ) ;
#282 = ADVANCED_FACE ( 'NONE', ( #489 ), #376, .F. ) ;
#283 = VERTEX_POINT ( 'NONE', #200 ) ;
#284 =( NAMED_UNIT ( * ) PLANE_ANGLE_UNIT ( ) SI_UNIT ( $, .RADIAN. ) );
#285 =( GEOMETRIC_REPRESENTATION_CONTEXT ( 3 ) GLOBAL_UNCERTAINTY_ASSIGNED_CONTEXT ( ( #453 ) ) GLOBAL_UNIT_ASSIGNED_CONTEXT ( ( #404, #32, #5 ) ) REPRESENTATION_CONTEXT ( 'NONE', 'WORKASPACE' ) );
#286 = ADVANCED_FACE ( 'NONE', ( #1 ), #160, .T. ) ;
#287 = VECTOR ( 'NONE', #485, 1000.000000000000000 ) ;
#288 = DIRECTION ( 'NONE',  ( -0.000000000000000000, -1.000000000000000000, -0.000000000000000000 ) ) ;
#289 = ORIENTED_EDGE ( 'NONE', *, *, #248, .F. ) ;
#290 = PRESENTATION_STYLE_ASSIGNMENT (( #253 ) ) ;
#291 = DIRECTION ( 'NONE',  ( -0.000000000000000000, -1.000000000000000000, -0.000000000000000000 ) ) ;
#292 = DIRECTION ( 'NONE',  ( 0.000000000000000000, 0.000000000000000000, -1.000000000000000000 ) ) ;
#293 = EDGE_LOOP ( 'NONE', ( #40, #362, #323, #361 ) ) ;
#294 = AXIS2_PLACEMENT_3D ( 'NONE', #490, #416, #41 ) ;
#295 = CARTESIAN_POINT ( 'NONE',  ( 2.900000000000001688, 0.000000000000000000, -15.00000000000000000 ) ) ;
#296 = VECTOR ( 'NONE', #313, 1000.000000000000000 ) ;
#297 = CARTESIAN_POINT ( 'NONE',  ( 0.000000000000000000, 0.000000000000000000, 0.000000000000000000 ) ) ;
#298 = FACE_OUTER_BOUND ( 'NONE', #123, .T. ) ;
#299 = DIRECTION ( 'NONE',  ( 0.000000000000000000, 0.000000000000000000, -1.000000000000000000 ) ) ;
#300 = ADVANCED_FACE ( 'NONE', ( #86 ), #343, .F. ) ;
#301 = AXIS2_PLACEMENT_3D ( 'NONE', #360, #21, #266 ) ;
#302 =( GEOMETRIC_REPRESENTATION_CONTEXT ( 3 ) GLOBAL_UNCERTAINTY_ASSIGNED_CONTEXT ( ( #9 ) ) GLOBAL_UNIT_ASSIGNED_CONTEXT ( ( #305, #381, #178 ) ) REPRESENTATION_CONTEXT ( 'NONE', 'WORKASPACE' ) );
#303 = VECTOR ( 'NONE', #214, 1000.000000000000000 ) ;
#304 = CARTESIAN_POINT ( 'NONE',  ( 7.435898384862249522, 17.00000000000000000, -9.500000000000001776 ) ) ;
#305 =( LENGTH_UNIT ( ) NAMED_UNIT ( * ) SI_UNIT ( .MILLI., .METRE. ) );
#306 = CARTESIAN_POINT ( 'NONE',  ( 0.000000000000000000, 0.000000000000000000, -15.00000000000000000 ) ) ;
#307 = EDGE_LOOP ( 'NONE', ( #459, #171, #385, #386 ) ) ;
#308 = AXIS2_PLACEMENT_3D ( 'NONE', #34, #193, #159 ) ;
#309 = ORIENTED_EDGE ( 'NONE', *, *, #407, .T. ) ;
#310 = CARTESIAN_POINT ( 'NONE',  ( 7.435898384862247745, 3.000000000000003109, -9.500000000000001776 ) ) ;
#311 = VERTEX_POINT ( 'NONE', #379 ) ;
#312 = EDGE_LOOP ( 'NONE', ( #246, #72, #151, #457 ) ) ;
#313 = DIRECTION ( 'NONE',  ( -0.000000000000000000, -1.000000000000000000, -0.000000000000000000 ) ) ;
#314 = ORIENTED_EDGE ( 'NONE', *, *, #18, .F. ) ;
#315 = ADVANCED_FACE ( 'NONE', ( #124 ), #7, .F. ) ;
#316 =( GEOMETRIC_REPRESENTATION_CONTEXT ( 3 ) GLOBAL_UNCERTAINTY_ASSIGNED_CONTEXT ( ( #391 ) ) GLOBAL_UNIT_ASSIGNED_CONTEXT ( ( #101, #284, #403 ) ) REPRESENTATION_CONTEXT ( 'NONE', 'WORKASPACE' ) );
#317 = LINE ( 'NONE', #144, #28 ) ;
#318 = AXIS2_PLACEMENT_3D ( 'NONE', #414, #226, #299 ) ;
#319 = EDGE_LOOP ( 'NONE', ( #210, #120, #174, #487, #168, #62 ) ) ;
#320 = CARTESIAN_POINT ( 'NONE',  ( 10.90000000000000213, 4.592425496802573972E-16, -3.500000000000000444 ) ) ;
#321 = DIRECTION ( 'NONE',  ( 0.000000000000000000, -1.000000000000000000, 0.000000000000000000 ) ) ;
#322 = DIRECTION ( 'NONE',  ( -0.000000000000000000, -1.000000000000000000, -0.000000000000000000 ) ) ;
#323 = ORIENTED_EDGE ( 'NONE', *, *, #234, .F. ) ;
#324 = FACE_BOUND ( 'NONE', #441, .T. ) ;
#325 = ORIENTED_EDGE ( 'NONE', *, *, #208, .T. ) ;
#326 = AXIS2_PLACEMENT_3D ( 'NONE', #223, #98, #29 ) ;
#327 = DIRECTION ( 'NONE',  ( 0.000000000000000000, 0.000000000000000000, -1.000000000000000000 ) ) ;
#328 = EDGE_CURVE ( 'NONE', #251, #132, #11, .T. ) ;
#329 = DIRECTION ( 'NONE',  ( 0.000000000000000000, -0.000000000000000000, 1.000000000000000000 ) ) ;
#330 = DIRECTION ( 'NONE',  ( -0.000000000000000000, -1.000000000000000000, -0.000000000000000000 ) ) ;
#331 = VERTEX_POINT ( 'NONE', #133 ) ;
#332 = VECTOR ( 'NONE', #280, 1000.000000000000000 ) ;
#333 = CARTESIAN_POINT ( 'NONE',  ( 14.90100000000000158, 3.000000000000003553, -9.500000000000001776 ) ) ;
#334 = CARTESIAN_POINT ( 'NONE',  ( 2.900000000000001688, 3.000000000000003109, -5.500000000000000888 ) ) ;
#335 = EDGE_CURVE ( 'NONE', #65, #109, #127, .T. ) ;
#336 = ORIENTED_EDGE ( 'NONE', *, *, #450, .F. ) ;
#337 = ADVANCED_FACE ( 'NONE', ( #393 ), #57, .T. ) ;
#338 = LINE ( 'NONE', #373, #27 ) ;
#339 = LINE ( 'NONE', #334, #474 ) ;
#340 = EDGE_CURVE ( 'NONE', #85, #455, #418, .T. ) ;
#341 = DIRECTION ( 'NONE',  ( 0.000000000000000000, 0.000000000000000000, -1.000000000000000000 ) ) ;
#342 = SURFACE_SIDE_STYLE ('',( #201 ) ) ;
#343 = CYLINDRICAL_SURFACE ( 'NONE', #466, 2.999999999999999112 ) ;
#344 = VECTOR ( 'NONE', #422, 1000.000000000000000 ) ;
#345 = LINE ( 'NONE', #173, #296 ) ;
#346 = SURFACE_STYLE_USAGE ( .BOTH. , #342 ) ;
#347 = LINE ( 'NONE', #54, #150 ) ;
#348 = EDGE_CURVE ( 'NONE', #149, #251, #259, .T. ) ;
#349 = EDGE_LOOP ( 'NONE', ( #10, #257, #58, #421 ) ) ;
#350 = DIRECTION ( 'NONE',  ( 0.000000000000000000, 0.000000000000000000, -1.000000000000000000 ) ) ;
#351 = VECTOR ( 'NONE', #245, 1000.000000000000000 ) ;
#352 = AXIS2_PLACEMENT_3D ( 'NONE', #478, #321, #446 ) ;
#353 = ORIENTED_EDGE ( 'NONE', *, *, #407, .F. ) ;
#354 = DIRECTION ( 'NONE',  ( 0.000000000000000000, 0.000000000000000000, 1.000000000000000000 ) ) ;
#355 = ADVANCED_FACE ( 'NONE', ( #260, #324 ), #481, .F. ) ;
#356 = EDGE_LOOP ( 'NONE', ( #55, #383, #49, #325 ) ) ;
#357 = ORIENTED_EDGE ( 'NONE', *, *, #420, .T. ) ;
#358 = LINE ( 'NONE', #222, #303 ) ;
#359 = AXIS2_PLACEMENT_3D ( 'NONE', #277, #438, #95 ) ;
#360 = CARTESIAN_POINT ( 'NONE',  ( 10.90000000000000213, 4.592425496802573972E-16, -7.500000000000000000 ) ) ;
#361 = ORIENTED_EDGE ( 'NONE', *, *, #22, .F. ) ;
#362 = ORIENTED_EDGE ( 'NONE', *, *, #155, .T. ) ;
#363 = DIRECTION ( 'NONE',  ( -0.000000000000000000, -1.000000000000000000, -0.000000000000000000 ) ) ;
#364 = DIRECTION ( 'NONE',  ( 1.000000000000000000, 0.000000000000000000, 0.000000000000000000 ) ) ;
#365 = ORIENTED_EDGE ( 'NONE', *, *, #255, .F. ) ;
#366 = FACE_OUTER_BOUND ( 'NONE', #307, .T. ) ;
#367 = VECTOR ( 'NONE', #380, 1000.000000000000000 ) ;
#368 = CARTESIAN_POINT ( 'NONE',  ( 0.000000000000000000, 0.000000000000000000, 0.000000000000000000 ) ) ;
#369 = CARTESIAN_POINT ( 'NONE',  ( 2.900000000000001688, 0.000000000000000000, 0.000000000000000000 ) ) ;
#370 = EDGE_CURVE ( 'NONE', #283, #272, #2, .T. ) ;
#371 = DIRECTION ( 'NONE',  ( 0.000000000000000000, 0.000000000000000000, -1.000000000000000000 ) ) ;
#372 = LINE ( 'NONE', #216, #90 ) ;
#373 = CARTESIAN_POINT ( 'NONE',  ( 14.90100000000000158, 3.000000000000003109, -5.500000000000000888 ) ) ;
#374 = DIRECTION ( 'NONE',  ( -0.000000000000000000, -1.000000000000000000, -0.000000000000000000 ) ) ;
#375 = DIRECTION ( 'NONE',  ( -0.000000000000000000, -1.000000000000000000, -0.000000000000000000 ) ) ;
#376 = PLANE ( 'NONE',  #294 ) ;
#377 = FILL_AREA_STYLE_COLOUR ( '', #75 ) ;
#378 = VERTEX_POINT ( 'NONE', #61 ) ;
#379 = CARTESIAN_POINT ( 'NONE',  ( 0.000000000000000000, 20.00000000000000000, 0.000000000000000000 ) ) ;
#380 = DIRECTION ( 'NONE',  ( 0.000000000000000000, 1.000000000000000000, 0.000000000000000000 ) ) ;
#381 =( NAMED_UNIT ( * ) PLANE_ANGLE_UNIT ( ) SI_UNIT ( $, .RADIAN. ) );
#382 = CARTESIAN_POINT ( 'NONE',  ( 2.900000000000001688, 3.000000000000003553, -9.500000000000001776 ) ) ;
#383 = ORIENTED_EDGE ( 'NONE', *, *, #267, .F. ) ;
#384 = DIRECTION ( 'NONE',  ( 0.000000000000000000, 0.000000000000000000, -1.000000000000000000 ) ) ;
#385 = ORIENTED_EDGE ( 'NONE', *, *, #78, .T. ) ;
#386 = ORIENTED_EDGE ( 'NONE', *, *, #111, .T. ) ;
#387 = ORIENTED_EDGE ( 'NONE', *, *, #108, .T. ) ;
#388 = FILL_AREA_STYLE_COLOUR ( '', #415 ) ;
#389 = MECHANICAL_DESIGN_GEOMETRIC_PRESENTATION_REPRESENTATION (  '', ( #265 ), #316 ) ;
#390 = ADVANCED_FACE ( 'NONE', ( #33 ), #397, .F. ) ;
#391 = UNCERTAINTY_MEASURE_WITH_UNIT (LENGTH_MEASURE( 1.000000000000000082E-05 ), #101, 'distance_accuracy_value', 'NONE');
#392 = SHAPE_DEFINITION_REPRESENTATION ( #400, #440 ) ;
#393 = FACE_OUTER_BOUND ( 'NONE', #15, .T. ) ;
#394 = PRODUCT ( 'lock holder', 'lock holder', '', ( #437 ) ) ;
#395 = APPLICATION_CONTEXT ( 'automotive_design' ) ;
#396 = APPLICATION_PROTOCOL_DEFINITION ( 'draft international standard', 'automotive_design', 1998, #395 ) ;
#397 = PLANE ( 'NONE',  #225 ) ;
#398 = ORIENTED_EDGE ( 'NONE', *, *, #139, .T. ) ;
#399 = FACE_OUTER_BOUND ( 'NONE', #80, .T. ) ;
#400 = PRODUCT_DEFINITION_SHAPE ( 'NONE', 'NONE',  #169 ) ;
#401 = DIRECTION ( 'NONE',  ( -0.000000000000000000, -1.000000000000000000, -0.000000000000000000 ) ) ;
#402 = VERTEX_POINT ( 'NONE', #256 ) ;
#403 =( NAMED_UNIT ( * ) SI_UNIT ( $, .STERADIAN. ) SOLID_ANGLE_UNIT ( ) );
#404 =( LENGTH_UNIT ( ) NAMED_UNIT ( * ) SI_UNIT ( .MILLI., .METRE. ) );
#405 = ORIENTED_EDGE ( 'NONE', *, *, #328, .T. ) ;
#406 = PLANE ( 'NONE',  #236 ) ;
#407 = EDGE_CURVE ( 'NONE', #195, #238, #64, .T. ) ;
#408 = VECTOR ( 'NONE', #228, 1000.000000000000000 ) ;
#409 = CIRCLE ( 'NONE', #482, 2.999999999999999112 ) ;
#410 = CARTESIAN_POINT ( 'NONE',  ( 10.90000000000000213, 3.000000000000003109, -7.500000000000000000 ) ) ;
#411 = CARTESIAN_POINT ( 'NONE',  ( 7.435898384862246857, 3.000000000000003109, -5.500000000000000000 ) ) ;
#412 = ORIENTED_EDGE ( 'NONE', *, *, #208, .F. ) ;
#413 = LINE ( 'NONE', #333, #287 ) ;
#414 = CARTESIAN_POINT ( 'NONE',  ( 10.90000000000000213, 17.00000000000000000, -7.500000000000000000 ) ) ;
#415 = COLOUR_RGB ( '',0.7921568627450980005, 0.8196078431372548767, 0.9333333333333333481 ) ;
#416 = DIRECTION ( 'NONE',  ( 0.000000000000000000, 0.000000000000000000, -1.000000000000000000 ) ) ;
#417 = CARTESIAN_POINT ( 'NONE',  ( 7.435898384862247745, 4.592425496802573972E-16, -5.500000000000000888 ) ) ;
#418 = LINE ( 'NONE', #447, #332 ) ;
#419 = VERTEX_POINT ( 'NONE', #411 ) ;
#420 = EDGE_CURVE ( 'NONE', #238, #251, #372, .T. ) ;
#421 = ORIENTED_EDGE ( 'NONE', *, *, #16, .F. ) ;
#422 = DIRECTION ( 'NONE',  ( 0.000000000000000000, 1.000000000000000000, 0.000000000000000000 ) ) ;
#423 = CARTESIAN_POINT ( 'NONE',  ( 2.900000000000001688, 20.00000000000000000, -15.00000000000000000 ) ) ;
#424 = VECTOR ( 'NONE', #330, 1000.000000000000000 ) ;
#425 = LINE ( 'NONE', #84, #51 ) ;
#426 = DIRECTION ( 'NONE',  ( 0.000000000000000000, 0.000000000000000000, -1.000000000000000000 ) ) ;
#427 = ORIENTED_EDGE ( 'NONE', *, *, #483, .F. ) ;
#428 = CARTESIAN_POINT ( 'NONE',  ( 10.90000000000000213, 3.000000000000003109, -4.500000000000000888 ) ) ;
#429 = ORIENTED_EDGE ( 'NONE', *, *, #248, .T. ) ;
#430 = DIRECTION ( 'NONE',  ( 1.000000000000000000, 0.000000000000000000, -0.000000000000000000 ) ) ;
#431 = FILL_AREA_STYLE ('',( #388 ) ) ;
#432 = PRODUCT_DEFINITION_FORMATION_WITH_SPECIFIED_SOURCE ( 'ANY', '', #394, .NOT_KNOWN. ) ;
#433 = VECTOR ( 'NONE', #479, 1000.000000000000000 ) ;
#434 = LINE ( 'NONE', #94, #351 ) ;
#435 = ORIENTED_EDGE ( 'NONE', *, *, #370, .T. ) ;
#436 = DIRECTION ( 'NONE',  ( 0.000000000000000000, 0.000000000000000000, -1.000000000000000000 ) ) ;
#437 = PRODUCT_CONTEXT ( 'NONE', #147, 'mechanical' ) ;
#438 = DIRECTION ( 'NONE',  ( -0.000000000000000000, -1.000000000000000000, -0.000000000000000000 ) ) ;
#439 = ORIENTED_EDGE ( 'NONE', *, *, #450, .T. ) ;
#440 = ADVANCED_BREP_SHAPE_REPRESENTATION ( 'lock holder', ( #14, #106 ), #285 ) ;
#441 = EDGE_LOOP ( 'NONE', ( #207, #270 ) ) ;
#442 = CYLINDRICAL_SURFACE ( 'NONE', #475, 2.999999999999999112 ) ;
#443 = CIRCLE ( 'NONE', #230, 4.000000000000000000 ) ;
#444 = EDGE_LOOP ( 'NONE', ( #102, #439, #134, #275 ) ) ;
#445 = EDGE_CURVE ( 'NONE', #468, #471, #339, .T. ) ;
#446 = DIRECTION ( 'NONE',  ( 0.000000000000000000, -0.000000000000000000, -1.000000000000000000 ) ) ;
#447 = CARTESIAN_POINT ( 'NONE',  ( 7.435898384862249522, 4.592425496802573972E-16, -9.500000000000001776 ) ) ;
#448 = ORIENTED_EDGE ( 'NONE', *, *, #276, .T. ) ;
#449 = CARTESIAN_POINT ( 'NONE',  ( 10.90000000000000213, 4.592425496802573972E-16, -7.500000000000000000 ) ) ;
#450 = EDGE_CURVE ( 'NONE', #419, #378, #117, .T. ) ;
#451 = CARTESIAN_POINT ( 'NONE',  ( 10.90000000000000213, 4.592425496802573972E-16, -4.500000000000000888 ) ) ;
#452 = CARTESIAN_POINT ( 'NONE',  ( 14.90100000000000158, 3.000000000000003109, -5.500000000000000888 ) ) ;
#453 = UNCERTAINTY_MEASURE_WITH_UNIT (LENGTH_MEASURE( 1.000000000000000082E-05 ), #404, 'distance_accuracy_value', 'NONE');
#454 = AXIS2_PLACEMENT_3D ( 'NONE', #233, #237, #203 ) ;
#455 = VERTEX_POINT ( 'NONE', #310 ) ;
#456 = DIRECTION ( 'NONE',  ( -0.000000000000000000, -0.000000000000000000, 1.000000000000000000 ) ) ;
#457 = ORIENTED_EDGE ( 'NONE', *, *, #78, .F. ) ;
#458 = CARTESIAN_POINT ( 'NONE',  ( 10.90000000000000213, 17.00000000000000000, -11.49999999999999822 ) ) ;
#459 = ORIENTED_EDGE ( 'NONE', *, *, #204, .F. ) ;
#460 = CARTESIAN_POINT ( 'NONE',  ( 10.90000000000000213, 3.000000000000003109, -7.500000000000000000 ) ) ;
#461 = MECHANICAL_DESIGN_GEOMETRIC_PRESENTATION_REPRESENTATION (  '', ( #52 ), #302 ) ;
#462 = DIRECTION ( 'NONE',  ( -1.000000000000000000, -0.000000000000000000, -0.000000000000000000 ) ) ;
#463 = ORIENTED_EDGE ( 'NONE', *, *, #420, .F. ) ;
#464 = EDGE_CURVE ( 'NONE', #311, #238, #425, .T. ) ;
#465 = EDGE_LOOP ( 'NONE', ( #244, #104, #156, #387 ) ) ;
#466 = AXIS2_PLACEMENT_3D ( 'NONE', #3, #240, #384 ) ;
#467 = CARTESIAN_POINT ( 'NONE',  ( 2.900000000000001688, 0.000000000000000000, 0.000000000000000000 ) ) ;
#468 = VERTEX_POINT ( 'NONE', #177 ) ;
#469 = ADVANCED_FACE ( 'NONE', ( #19 ), #24, .F. ) ;
#470 = DIRECTION ( 'NONE',  ( -0.000000000000000000, -1.000000000000000000, -0.000000000000000000 ) ) ;
#471 = VERTEX_POINT ( 'NONE', #218 ) ;
#472 = ORIENTED_EDGE ( 'NONE', *, *, #340, .F. ) ;
#473 = DIRECTION ( 'NONE',  ( 0.000000000000000000, 0.000000000000000000, -1.000000000000000000 ) ) ;
#474 = VECTOR ( 'NONE', #374, 1000.000000000000000 ) ;
#475 = AXIS2_PLACEMENT_3D ( 'NONE', #477, #215, #26 ) ;
#476 = EDGE_LOOP ( 'NONE', ( #189, #273, #289, #472 ) ) ;
#477 = CARTESIAN_POINT ( 'NONE',  ( 10.90000000000000213, 4.592425496802573972E-16, -7.500000000000000000 ) ) ;
#478 = CARTESIAN_POINT ( 'NONE',  ( 2.900000000000001688, 20.00000000000000000, 0.000000000000000000 ) ) ;
#479 = DIRECTION ( 'NONE',  ( -1.000000000000000000, -0.000000000000000000, -0.000000000000000000 ) ) ;
#480 = AXIS2_PLACEMENT_3D ( 'NONE', #452, #68, #153 ) ;
#481 = PLANE ( 'NONE',  #480 ) ;
#482 = AXIS2_PLACEMENT_3D ( 'NONE', #269, #8, #126 ) ;
#483 = EDGE_CURVE ( 'NONE', #239, #195, #279, .T. ) ;
#484 = CARTESIAN_POINT ( 'NONE',  ( 10.90000000000000213, 3.000000000000003109, -10.49999999999999822 ) ) ;
#485 = DIRECTION ( 'NONE',  ( -1.000000000000000000, -0.000000000000000000, -0.000000000000000000 ) ) ;
#486 = CARTESIAN_POINT ( 'NONE',  ( 2.900000000000001688, 0.000000000000000000, 0.000000000000000000 ) ) ;
#487 = ORIENTED_EDGE ( 'NONE', *, *, #194, .F. ) ;
#488 = LINE ( 'NONE', #157, #209 ) ;
#489 = FACE_OUTER_BOUND ( 'NONE', #221, .T. ) ;
#490 = CARTESIAN_POINT ( 'NONE',  ( 2.900000000000001688, 0.000000000000000000, 0.000000000000000000 ) ) ;
ENDSEC;
END-ISO-10303-21;
