ISO-10303-21;
HEADER;
FILE_DESCRIPTION (( 'STEP AP214' ),
    '1' );
FILE_NAME ('lock.STEP',
    '2023-05-22T15:24:13',
    ( '' ),
    ( '' ),
    'SwSTEP 2.0',
    'SolidWorks 2022',
    '' );
FILE_SCHEMA (( 'AUTOMOTIVE_DESIGN' ));
ENDSEC;

DATA;
#1 = APPLICATION_CONTEXT ( 'automotive_design' ) ;
#2 = EDGE_CURVE ( 'NONE', #390, #80, #373, .T. ) ;
#3 = DIRECTION ( 'NONE',  ( 0.3420201433256604417, 0.9396926207859114255, 0.000000000000000000 ) ) ;
#4 = PRESENTATION_LAYER_ASSIGNMENT (  '', '', ( #37 ) ) ;
#5 = EDGE_LOOP ( 'NONE', ( #499, #387, #60, #497 ) ) ;
#6 = AXIS2_PLACEMENT_3D ( 'NONE', #163, #482, #194 ) ;
#7 = CYLINDRICAL_SURFACE ( 'NONE', #465, 3.000000000000002665 ) ;
#8 = CYLINDRICAL_SURFACE ( 'NONE', #520, 4.000000000000003553 ) ;
#9 = ORIENTED_EDGE ( 'NONE', *, *, #177, .F. ) ;
#10 = DIRECTION ( 'NONE',  ( 0.000000000000000000, 0.000000000000000000, -1.000000000000000000 ) ) ;
#11 = VERTEX_POINT ( 'NONE', #414 ) ;
#12 = ORIENTED_EDGE ( 'NONE', *, *, #469, .T. ) ;
#13 = PLANE ( 'NONE',  #89 ) ;
#14 = DIRECTION ( 'NONE',  ( -0.000000000000000000, -0.000000000000000000, -1.000000000000000000 ) ) ;
#15 = EDGE_CURVE ( 'NONE', #129, #155, #57, .T. ) ;
#16 = SURFACE_STYLE_FILL_AREA ( #133 ) ;
#17 = CARTESIAN_POINT ( 'NONE',  ( 10.24652218496568956, 15.74999999999998579, 40.00000000000000000 ) ) ;
#18 = AXIS2_PLACEMENT_3D ( 'NONE', #31, #27, #468 ) ;
#19 = CARTESIAN_POINT ( 'NONE',  ( 10.24652218496568956, 15.74999999999998579, 40.00000000000000000 ) ) ;
#20 = CIRCLE ( 'NONE', #467, 3.000000000000002665 ) ;
#21 = PLANE ( 'NONE',  #511 ) ;
#22 = ORIENTED_EDGE ( 'NONE', *, *, #34, .F. ) ;
#23 = CARTESIAN_POINT ( 'NONE',  ( 7.989526687329162158, 7.874999999999992895, 40.00000000000000711 ) ) ;
#24 = DIRECTION ( 'NONE',  ( 1.000000000000000000, 0.000000000000000000, 0.000000000000000000 ) ) ;
#25 = EDGE_CURVE ( 'NONE', #246, #415, #204, .T. ) ;
#26 = CARTESIAN_POINT ( 'NONE',  ( 5.732531189692524620, 15.74999999999998579, 0.000000000000000000 ) ) ;
#27 = DIRECTION ( 'NONE',  ( 0.000000000000000000, 0.000000000000000000, 1.000000000000000000 ) ) ;
#28 = AXIS2_PLACEMENT_3D ( 'NONE', #305, #146, #487 ) ;
#29 = VECTOR ( 'NONE', #523, 1000.000000000000000 ) ;
#30 = CARTESIAN_POINT ( 'NONE',  ( 15.97905337465832432, 0.000000000000000000, 40.00000000000000000 ) ) ;
#31 = CARTESIAN_POINT ( 'NONE',  ( 0.000000000000000000, 0.000000000000000000, 0.000000000000000000 ) ) ;
#32 = ORIENTED_EDGE ( 'NONE', *, *, #106, .T. ) ;
#33 = SURFACE_SIDE_STYLE ('',( #189 ) ) ;
#34 = EDGE_CURVE ( 'NONE', #281, #93, #356, .T. ) ;
#35 = DIRECTION ( 'NONE',  ( 1.000000000000000000, 0.000000000000000000, 0.000000000000000000 ) ) ;
#36 = CARTESIAN_POINT ( 'NONE',  ( 5.732531189692524620, 15.74999999999998579, 40.00000000000000000 ) ) ;
#37 = STYLED_ITEM ( 'NONE', ( #340 ), #384 ) ;
#38 = DIRECTION ( 'NONE',  ( 0.000000000000000000, 0.000000000000000000, 1.000000000000000000 ) ) ;
#39 = STYLED_ITEM ( 'NONE', ( #381 ), #71 ) ;
#40 = VERTEX_POINT ( 'NONE', #386 ) ;
#41 = AXIS2_PLACEMENT_3D ( 'NONE', #23, #68, #382 ) ;
#42 = SURFACE_STYLE_FILL_AREA ( #231 ) ;
#43 = ORIENTED_EDGE ( 'NONE', *, *, #83, .T. ) ;
#44 = ADVANCED_FACE ( 'NONE', ( #67 ), #176, .F. ) ;
#45 =( NAMED_UNIT ( * ) SI_UNIT ( $, .STERADIAN. ) SOLID_ANGLE_UNIT ( ) );
#46 = LINE ( 'NONE', #346, #82 ) ;
#47 = FACE_OUTER_BOUND ( 'NONE', #199, .T. ) ;
#48 = TOROIDAL_SURFACE ( 'NONE', #6, 5.999999999999998224, 3.000000000000001332 ) ;
#49 = DIRECTION ( 'NONE',  ( 1.000000000000000000, 0.000000000000000000, 0.000000000000000000 ) ) ;
#50 = CARTESIAN_POINT ( 'NONE',  ( 28.98952668732916038, 7.874999999999992895, 54.56216485999999577 ) ) ;
#51 = EDGE_CURVE ( 'NONE', #236, #80, #279, .T. ) ;
#52 =( LENGTH_UNIT ( ) NAMED_UNIT ( * ) SI_UNIT ( .MILLI., .METRE. ) );
#53 = ORIENTED_EDGE ( 'NONE', *, *, #402, .F. ) ;
#54 = ORIENTED_EDGE ( 'NONE', *, *, #361, .F. ) ;
#55 = STYLED_ITEM ( 'NONE', ( #357 ), #481 ) ;
#56 = UNCERTAINTY_MEASURE_WITH_UNIT (LENGTH_MEASURE( 1.000000000000000082E-05 ), #77, 'distance_accuracy_value', 'NONE');
#57 = LINE ( 'NONE', #17, #429 ) ;
#58 = EDGE_CURVE ( 'NONE', #450, #40, #174, .T. ) ;
#59 = PRESENTATION_STYLE_ASSIGNMENT (( #424 ) ) ;
#60 = ORIENTED_EDGE ( 'NONE', *, *, #508, .F. ) ;
#61 = ORIENTED_EDGE ( 'NONE', *, *, #519, .T. ) ;
#62 = VECTOR ( 'NONE', #130, 1000.000000000000000 ) ;
#63 = CIRCLE ( 'NONE', #99, 4.000000000000003553 ) ;
#64 = LINE ( 'NONE', #19, #445 ) ;
#65 = LINE ( 'NONE', #296, #126 ) ;
#66 = SURFACE_STYLE_USAGE ( .BOTH. , #374 ) ;
#67 = FACE_OUTER_BOUND ( 'NONE', #485, .T. ) ;
#68 = DIRECTION ( 'NONE',  ( -4.052067448691492018E-16, 0.000000000000000000, 1.000000000000000000 ) ) ;
#69 = SURFACE_SIDE_STYLE ('',( #139 ) ) ;
#70 = CARTESIAN_POINT ( 'NONE',  ( 27.98952668732916038, 7.874999999999992895, 54.56216485999999577 ) ) ;
#71 = ADVANCED_FACE ( 'NONE', ( #507 ), #221, .T. ) ;
#72 = FACE_OUTER_BOUND ( 'NONE', #410, .T. ) ;
#73 = FACE_OUTER_BOUND ( 'NONE', #417, .T. ) ;
#74 = CARTESIAN_POINT ( 'NONE',  ( 15.97905337465832432, 0.000000000000000000, 0.000000000000000000 ) ) ;
#75 = PLANE ( 'NONE',  #171 ) ;
#76 = FILL_AREA_STYLE_COLOUR ( '', #457 ) ;
#77 =( LENGTH_UNIT ( ) NAMED_UNIT ( * ) SI_UNIT ( .MILLI., .METRE. ) );
#78 = CARTESIAN_POINT ( 'NONE',  ( 10.24652218496568956, 15.74999999999998579, 40.00000000000000000 ) ) ;
#79 = EDGE_LOOP ( 'NONE', ( #132, #460, #453, #161 ) ) ;
#80 = VERTEX_POINT ( 'NONE', #341 ) ;
#81 = ORIENTED_EDGE ( 'NONE', *, *, #143, .F. ) ;
#82 = VECTOR ( 'NONE', #441, 1000.000000000000114 ) ;
#83 = EDGE_CURVE ( 'NONE', #243, #394, #512, .T. ) ;
#84 = CARTESIAN_POINT ( 'NONE',  ( 10.98952668732916393, 7.874999999999992895, 48.56216486000000998 ) ) ;
#85 = ORIENTED_EDGE ( 'NONE', *, *, #303, .F. ) ;
#86 = ORIENTED_EDGE ( 'NONE', *, *, #234, .T. ) ;
#87 = EDGE_CURVE ( 'NONE', #473, #415, #65, .T. ) ;
#88 = ORIENTED_EDGE ( 'NONE', *, *, #177, .T. ) ;
#89 = AXIS2_PLACEMENT_3D ( 'NONE', #368, #490, #10 ) ;
#90 =( GEOMETRIC_REPRESENTATION_CONTEXT ( 3 ) GLOBAL_UNCERTAINTY_ASSIGNED_CONTEXT ( ( #91 ) ) GLOBAL_UNIT_ASSIGNED_CONTEXT ( ( #262, #254, #515 ) ) REPRESENTATION_CONTEXT ( 'NONE', 'WORKASPACE' ) );
#91 = UNCERTAINTY_MEASURE_WITH_UNIT (LENGTH_MEASURE( 1.000000000000000082E-05 ), #262, 'distance_accuracy_value', 'NONE');
#92 = APPLICATION_CONTEXT ( 'automotive_design' ) ;
#93 = VERTEX_POINT ( 'NONE', #475 ) ;
#94 = CARTESIAN_POINT ( 'NONE',  ( 28.98952668732916038, 7.874999999999992895, 50.56216485999999577 ) ) ;
#95 = ORIENTED_EDGE ( 'NONE', *, *, #435, .T. ) ;
#96 = SHAPE_DEFINITION_REPRESENTATION ( #298, #481 ) ;
#97 = DIRECTION ( 'NONE',  ( -1.000000000000000000, 0.000000000000000000, 0.000000000000000000 ) ) ;
#98 = DIRECTION ( 'NONE',  ( 1.000000000000000000, 0.000000000000000000, 0.000000000000000000 ) ) ;
#99 = AXIS2_PLACEMENT_3D ( 'NONE', #272, #439, #432 ) ;
#100 = ADVANCED_FACE ( 'NONE', ( #109 ), #21, .F. ) ;
#101 = DIRECTION ( 'NONE',  ( 0.000000000000000000, 0.000000000000000000, -1.000000000000000000 ) ) ;
#102 = PRESENTATION_STYLE_ASSIGNMENT (( #294 ) ) ;
#103 = CARTESIAN_POINT ( 'NONE',  ( 28.98952668732916038, 7.874999999999992895, 54.56216485999999577 ) ) ;
#104 = CYLINDRICAL_SURFACE ( 'NONE', #278, 3.000000000000000888 ) ;
#105 = DIRECTION ( 'NONE',  ( -0.3420201433256604417, -0.9396926207859114255, 0.000000000000000000 ) ) ;
#106 = EDGE_CURVE ( 'NONE', #232, #236, #136, .T. ) ;
#107 = COLOUR_RGB ( '',0.7921568627450980005, 0.8196078431372548767, 0.9333333333333333481 ) ;
#108 = CARTESIAN_POINT ( 'NONE',  ( 10.98952668732916393, 7.874999999999992895, 40.00000000000000711 ) ) ;
#109 = FACE_OUTER_BOUND ( 'NONE', #322, .T. ) ;
#110 = ORIENTED_EDGE ( 'NONE', *, *, #367, .F. ) ;
#111 = LINE ( 'NONE', #30, #454 ) ;
#112 = PLANE ( 'NONE',  #347 ) ;
#113 = ADVANCED_FACE ( 'NONE', ( #464 ), #48, .T. ) ;
#114 = DIRECTION ( 'NONE',  ( 0.000000000000000000, -1.000000000000000000, 0.000000000000000000 ) ) ;
#115 = CARTESIAN_POINT ( 'NONE',  ( 0.000000000000000000, 0.000000000000000000, 40.00000000000000000 ) ) ;
#116 =( GEOMETRIC_REPRESENTATION_CONTEXT ( 3 ) GLOBAL_UNCERTAINTY_ASSIGNED_CONTEXT ( ( #56 ) ) GLOBAL_UNIT_ASSIGNED_CONTEXT ( ( #77, #268, #45 ) ) REPRESENTATION_CONTEXT ( 'NONE', 'WORKASPACE' ) );
#117 = CARTESIAN_POINT ( 'NONE',  ( 15.97905337465832432, 0.000000000000000000, 40.00000000000000000 ) ) ;
#118 = CYLINDRICAL_SURFACE ( 'NONE', #337, 3.000000000000002665 ) ;
#119 = DIRECTION ( 'NONE',  ( -0.9396926207859093161, -0.3420201433256663259, 0.000000000000000000 ) ) ;
#120 = CARTESIAN_POINT ( 'NONE',  ( 13.98952668732916393, 7.874999999999992895, 57.56216486000000288 ) ) ;
#121 = LINE ( 'NONE', #436, #29 ) ;
#122 = ADVANCED_FACE ( 'NONE', ( #379 ), #112, .F. ) ;
#123 = CARTESIAN_POINT ( 'NONE',  ( 0.000000000000000000, 0.000000000000000000, 0.000000000000000000 ) ) ;
#124 = CARTESIAN_POINT ( 'NONE',  ( 27.98952668732916038, 7.874999999999992895, 57.56216486000000288 ) ) ;
#125 = ORIENTED_EDGE ( 'NONE', *, *, #443, .F. ) ;
#126 = VECTOR ( 'NONE', #331, 1000.000000000000000 ) ;
#127 = ORIENTED_EDGE ( 'NONE', *, *, #323, .F. ) ;
#128 = EDGE_CURVE ( 'NONE', #521, #399, #203, .T. ) ;
#129 = VERTEX_POINT ( 'NONE', #350 ) ;
#130 = DIRECTION ( 'NONE',  ( -4.052067448691492018E-16, 0.000000000000000000, 1.000000000000000000 ) ) ;
#131 = DIRECTION ( 'NONE',  ( 1.000000000000000000, 0.000000000000000000, 0.000000000000000000 ) ) ;
#132 = ORIENTED_EDGE ( 'NONE', *, *, #342, .F. ) ;
#133 = FILL_AREA_STYLE ('',( #421 ) ) ;
#134 = ORIENTED_EDGE ( 'NONE', *, *, #443, .T. ) ;
#135 = ORIENTED_EDGE ( 'NONE', *, *, #427, .F. ) ;
#136 = LINE ( 'NONE', #426, #404 ) ;
#137 = EDGE_CURVE ( 'NONE', #246, #129, #46, .T. ) ;
#138 = DIRECTION ( 'NONE',  ( -0.3420201433256604417, -0.9396926207859114255, 0.000000000000000000 ) ) ;
#139 = SURFACE_STYLE_FILL_AREA ( #179 ) ;
#140 = AXIS2_PLACEMENT_3D ( 'NONE', #470, #142, #24 ) ;
#141 = CARTESIAN_POINT ( 'NONE',  ( 13.98952668732916038, 7.874999999999992895, 48.56216486000000288 ) ) ;
#142 = DIRECTION ( 'NONE',  ( -4.052067448691492018E-16, 0.000000000000000000, 1.000000000000000000 ) ) ;
#143 = EDGE_CURVE ( 'NONE', #232, #390, #20, .T. ) ;
#144 = CARTESIAN_POINT ( 'NONE',  ( 28.98952668732916038, 7.874999999999992895, 58.56216486000000288 ) ) ;
#145 = ORIENTED_EDGE ( 'NONE', *, *, #188, .T. ) ;
#146 = DIRECTION ( 'NONE',  ( 1.000000000000000000, 0.000000000000000000, 0.000000000000000000 ) ) ;
#147 = VECTOR ( 'NONE', #516, 1000.000000000000000 ) ;
#148 = DIRECTION ( 'NONE',  ( 1.000000000000000000, 0.000000000000000000, -0.000000000000000000 ) ) ;
#149 = CIRCLE ( 'NONE', #313, 4.000000000000003553 ) ;
#150 = PRESENTATION_LAYER_ASSIGNMENT (  '', '', ( #270 ) ) ;
#151 = DIRECTION ( 'NONE',  ( 0.000000000000000000, 0.000000000000000000, 1.000000000000000000 ) ) ;
#152 = VERTEX_POINT ( 'NONE', #483 ) ;
#153 = CARTESIAN_POINT ( 'NONE',  ( 15.97905337465832432, 0.000000000000000000, 0.000000000000000000 ) ) ;
#154 = DIRECTION ( 'NONE',  ( 0.000000000000000000, -0.000000000000000000, -1.000000000000000000 ) ) ;
#155 = VERTEX_POINT ( 'NONE', #518 ) ;
#156 = PLANE ( 'NONE',  #271 ) ;
#157 = DIRECTION ( 'NONE',  ( 1.000000000000000000, 0.000000000000000000, 0.000000000000000000 ) ) ;
#158 =( GEOMETRIC_REPRESENTATION_CONTEXT ( 3 ) GLOBAL_UNCERTAINTY_ASSIGNED_CONTEXT ( ( #391 ) ) GLOBAL_UNIT_ASSIGNED_CONTEXT ( ( #403, #365, #447 ) ) REPRESENTATION_CONTEXT ( 'NONE', 'WORKASPACE' ) );
#159 = DIRECTION ( 'NONE',  ( 0.000000000000000000, 0.000000000000000000, -1.000000000000000000 ) ) ;
#160 = AXIS2_PLACEMENT_3D ( 'NONE', #277, #190, #157 ) ;
#161 = ORIENTED_EDGE ( 'NONE', *, *, #83, .F. ) ;
#162 = ADVANCED_FACE ( 'NONE', ( #47 ), #316, .T. ) ;
#163 = CARTESIAN_POINT ( 'NONE',  ( 13.98952668732916038, 7.874999999999992895, 48.56216486000000288 ) ) ;
#164 = ORIENTED_EDGE ( 'NONE', *, *, #188, .F. ) ;
#165 = AXIS2_PLACEMENT_3D ( 'NONE', #456, #315, #358 ) ;
#166 = EDGE_LOOP ( 'NONE', ( #451, #253 ) ) ;
#167 = EDGE_LOOP ( 'NONE', ( #276, #32, #478, #170 ) ) ;
#168 = CARTESIAN_POINT ( 'NONE',  ( 7.989526687329162158, 7.874999999999992895, 48.56216486000000998 ) ) ;
#169 = SURFACE_SIDE_STYLE ('',( #380 ) ) ;
#170 = ORIENTED_EDGE ( 'NONE', *, *, #2, .F. ) ;
#171 = AXIS2_PLACEMENT_3D ( 'NONE', #115, #397, #148 ) ;
#172 = AXIS2_PLACEMENT_3D ( 'NONE', #401, #489, #184 ) ;
#173 = EDGE_CURVE ( 'NONE', #281, #390, #273, .T. ) ;
#174 = LINE ( 'NONE', #472, #413 ) ;
#175 = ORIENTED_EDGE ( 'NONE', *, *, #137, .T. ) ;
#176 = PLANE ( 'NONE',  #18 ) ;
#177 = EDGE_CURVE ( 'NONE', #521, #281, #121, .T. ) ;
#178 = DIRECTION ( 'NONE',  ( -1.000000000000000000, -0.000000000000000000, -0.000000000000000000 ) ) ;
#179 = FILL_AREA_STYLE ('',( #333 ) ) ;
#180 = DIRECTION ( 'NONE',  ( -0.3420201433256662704, 0.9396926207859093161, 0.000000000000000000 ) ) ;
#181 = SURFACE_STYLE_FILL_AREA ( #343 ) ;
#182 = EDGE_LOOP ( 'NONE', ( #240, #54 ) ) ;
#183 = DIRECTION ( 'NONE',  ( 1.000000000000000000, 0.000000000000000000, 0.000000000000000000 ) ) ;
#184 = DIRECTION ( 'NONE',  ( 1.000000000000000000, 0.000000000000000000, 0.000000000000000000 ) ) ;
#185 = VECTOR ( 'NONE', #180, 1000.000000000000114 ) ;
#186 = PRESENTATION_LAYER_ASSIGNMENT (  '', '', ( #495 ) ) ;
#187 = FACE_BOUND ( 'NONE', #503, .T. ) ;
#188 = EDGE_CURVE ( 'NONE', #93, #281, #422, .T. ) ;
#189 = SURFACE_STYLE_FILL_AREA ( #222 ) ;
#190 = DIRECTION ( 'NONE',  ( -4.052067448691492018E-16, 0.000000000000000000, 1.000000000000000000 ) ) ;
#191 = CARTESIAN_POINT ( 'NONE',  ( 13.98952668732916393, 7.874999999999992895, 54.56216485999999577 ) ) ;
#192 = ORIENTED_EDGE ( 'NONE', *, *, #427, .T. ) ;
#193 = EDGE_CURVE ( 'NONE', #243, #11, #149, .T. ) ;
#194 = DIRECTION ( 'NONE',  ( 0.000000000000000000, 0.000000000000000000, 1.000000000000000000 ) ) ;
#195 = COLOUR_RGB ( '',1.000000000000000000, 1.000000000000000000, 1.000000000000000000 ) ;
#196 = ORIENTED_EDGE ( 'NONE', *, *, #128, .T. ) ;
#197 = DIRECTION ( 'NONE',  ( 1.000000000000000000, 0.000000000000000000, 0.000000000000000000 ) ) ;
#198 = ADVANCED_FACE ( 'NONE', ( #267 ), #8, .T. ) ;
#199 = EDGE_LOOP ( 'NONE', ( #317, #364, #43, #95 ) ) ;
#200 = CARTESIAN_POINT ( 'NONE',  ( 28.98952668732916038, 7.874999999999992895, 58.56216486000000288 ) ) ;
#201 = VECTOR ( 'NONE', #444, 1000.000000000000000 ) ;
#202 = ORIENTED_EDGE ( 'NONE', *, *, #435, .F. ) ;
#203 = CIRCLE ( 'NONE', #172, 3.000000000000000888 ) ;
#204 = LINE ( 'NONE', #370, #218 ) ;
#205 = ORIENTED_EDGE ( 'NONE', *, *, #25, .F. ) ;
#206 = DIRECTION ( 'NONE',  ( -4.052067448691492018E-16, 0.000000000000000000, 1.000000000000000000 ) ) ;
#207 = ORIENTED_EDGE ( 'NONE', *, *, #25, .T. ) ;
#208 = VERTEX_POINT ( 'NONE', #310 ) ;
#209 = ADVANCED_FACE ( 'NONE', ( #73 ), #307, .F. ) ;
#210 =( LENGTH_UNIT ( ) NAMED_UNIT ( * ) SI_UNIT ( .MILLI., .METRE. ) );
#211 = VECTOR ( 'NONE', #178, 1000.000000000000000 ) ;
#212 = FILL_AREA_STYLE_COLOUR ( '', #195 ) ;
#213 = AXIS2_PLACEMENT_3D ( 'NONE', #103, #466, #101 ) ;
#214 = SURFACE_SIDE_STYLE ('',( #181 ) ) ;
#215 = DIRECTION ( 'NONE',  ( 0.000000000000000000, 0.000000000000000000, -1.000000000000000000 ) ) ;
#216 = ADVANCED_FACE ( 'NONE', ( #398 ), #237, .T. ) ;
#217 = LINE ( 'NONE', #26, #423 ) ;
#218 = VECTOR ( 'NONE', #14, 1000.000000000000000 ) ;
#219 = MECHANICAL_DESIGN_GEOMETRIC_PRESENTATION_REPRESENTATION (  '', ( #476 ), #438 ) ;
#220 = LINE ( 'NONE', #36, #494 ) ;
#221 = CYLINDRICAL_SURFACE ( 'NONE', #140, 3.000000000000000888 ) ;
#222 = FILL_AREA_STYLE ('',( #312 ) ) ;
#223 = DIRECTION ( 'NONE',  ( 0.3420201433256662704, -0.9396926207859092051, 0.000000000000000000 ) ) ;
#224 = CARTESIAN_POINT ( 'NONE',  ( 5.732531189692524620, 15.74999999999998579, 40.00000000000000000 ) ) ;
#225 = ADVANCED_FACE ( 'NONE', ( #187, #492 ), #13, .F. ) ;
#226 = DIRECTION ( 'NONE',  ( 0.000000000000000000, 0.000000000000000000, 1.000000000000000000 ) ) ;
#227 = EDGE_LOOP ( 'NONE', ( #85, #145, #321, #81 ) ) ;
#228 = AXIS2_PLACEMENT_3D ( 'NONE', #141, #377, #425 ) ;
#229 = CLOSED_SHELL ( 'NONE', ( #113, #198, #409, #384, #100, #209, #122, #488, #479, #44, #274, #216, #71, #162, #287, #225 ) ) ;
#230 = CARTESIAN_POINT ( 'NONE',  ( 0.000000000000000000, 0.000000000000000000, 0.000000000000000000 ) ) ;
#231 = FILL_AREA_STYLE ('',( #76 ) ) ;
#232 = VERTEX_POINT ( 'NONE', #120 ) ;
#233 = FACE_BOUND ( 'NONE', #182, .T. ) ;
#234 = EDGE_CURVE ( 'NONE', #399, #93, #498, .T. ) ;
#235 = DIRECTION ( 'NONE',  ( 0.000000000000000000, 1.000000000000000000, 0.000000000000000000 ) ) ;
#236 = VERTEX_POINT ( 'NONE', #124 ) ;
#237 = TOROIDAL_SURFACE ( 'NONE', #165, 5.999999999999998224, 3.000000000000001332 ) ;
#238 = AXIS2_PLACEMENT_3D ( 'NONE', #168, #500, #131 ) ;
#239 = CARTESIAN_POINT ( 'NONE',  ( 13.98952668732916393, 7.874999999999992895, 54.56216485999999577 ) ) ;
#240 = ORIENTED_EDGE ( 'NONE', *, *, #128, .F. ) ;
#241 = PLANE ( 'NONE',  #348 ) ;
#242 = UNCERTAINTY_MEASURE_WITH_UNIT (LENGTH_MEASURE( 1.000000000000000082E-05 ), #260, 'distance_accuracy_value', 'NONE');
#243 = VERTEX_POINT ( 'NONE', #200 ) ;
#244 = DIRECTION ( 'NONE',  ( 0.000000000000000000, 0.000000000000000000, 1.000000000000000000 ) ) ;
#245 = PRODUCT_RELATED_PRODUCT_CATEGORY ( 'part', '', ( #471 ) ) ;
#246 = VERTEX_POINT ( 'NONE', #283 ) ;
#247 = UNCERTAINTY_MEASURE_WITH_UNIT (LENGTH_MEASURE( 1.000000000000000082E-05 ), #210, 'distance_accuracy_value', 'NONE');
#248 = DIRECTION ( 'NONE',  ( 1.000000000000000000, 0.000000000000000000, 0.000000000000000000 ) ) ;
#249 = AXIS2_PLACEMENT_3D ( 'NONE', #433, #235, #151 ) ;
#250 = CARTESIAN_POINT ( 'NONE',  ( 4.989526687329161270, 7.874999999999992895, 40.00000000000000711 ) ) ;
#251 = EDGE_LOOP ( 'NONE', ( #493, #300, #355, #252 ) ) ;
#252 = ORIENTED_EDGE ( 'NONE', *, *, #51, .F. ) ;
#253 = ORIENTED_EDGE ( 'NONE', *, *, #342, .T. ) ;
#254 =( NAMED_UNIT ( * ) PLANE_ANGLE_UNIT ( ) SI_UNIT ( $, .RADIAN. ) );
#255 = MECHANICAL_DESIGN_GEOMETRIC_PRESENTATION_REPRESENTATION (  '', ( #55 ), #158 ) ;
#256 = MECHANICAL_DESIGN_GEOMETRIC_PRESENTATION_REPRESENTATION (  '', ( #270 ), #448 ) ;
#257 = FILL_AREA_STYLE_COLOUR ( '', #437 ) ;
#258 = EDGE_CURVE ( 'NONE', #155, #152, #416, .T. ) ;
#259 = LINE ( 'NONE', #94, #211 ) ;
#260 =( LENGTH_UNIT ( ) NAMED_UNIT ( * ) SI_UNIT ( .MILLI., .METRE. ) );
#261 = CARTESIAN_POINT ( 'NONE',  ( 7.989526687329162158, 7.874999999999992895, 40.00000000000000711 ) ) ;
#262 =( LENGTH_UNIT ( ) NAMED_UNIT ( * ) SI_UNIT ( .MILLI., .METRE. ) );
#263 = AXIS2_PLACEMENT_3D ( 'NONE', #123, #244, #408 ) ;
#264 = SURFACE_STYLE_USAGE ( .BOTH. , #214 ) ;
#265 = ORIENTED_EDGE ( 'NONE', *, *, #137, .F. ) ;
#266 = DIRECTION ( 'NONE',  ( 1.000000000000000000, -0.000000000000000000, -0.000000000000000000 ) ) ;
#267 = FACE_OUTER_BOUND ( 'NONE', #79, .T. ) ;
#268 =( NAMED_UNIT ( * ) PLANE_ANGLE_UNIT ( ) SI_UNIT ( $, .RADIAN. ) );
#269 = CARTESIAN_POINT ( 'NONE',  ( 28.98952668732916038, 7.874999999999992895, 54.56216485999999577 ) ) ;
#270 = STYLED_ITEM ( 'NONE', ( #59 ), #325 ) ;
#271 = AXIS2_PLACEMENT_3D ( 'NONE', #392, #480, #3 ) ;
#272 = CARTESIAN_POINT ( 'NONE',  ( 27.98952668732916038, 7.874999999999992895, 54.56216485999999577 ) ) ;
#273 = CIRCLE ( 'NONE', #249, 2.999999999999995559 ) ;
#274 = ADVANCED_FACE ( 'NONE', ( #285 ), #7, .T. ) ;
#275 = CARTESIAN_POINT ( 'NONE',  ( 28.98952668732916038, 7.874999999999992895, 54.56216485999999577 ) ) ;
#276 = ORIENTED_EDGE ( 'NONE', *, *, #508, .T. ) ;
#277 = CARTESIAN_POINT ( 'NONE',  ( 7.989526687329162158, 7.874999999999992895, 48.56216486000000998 ) ) ;
#278 = AXIS2_PLACEMENT_3D ( 'NONE', #261, #206, #371 ) ;
#279 = CIRCLE ( 'NONE', #329, 3.000000000000002665 ) ;
#280 = AXIS2_PLACEMENT_3D ( 'NONE', #117, #119, #223 ) ;
#281 = VERTEX_POINT ( 'NONE', #84 ) ;
#282 = CARTESIAN_POINT ( 'NONE',  ( 13.98952668732916393, 7.874999999999992895, 51.56216485999999577 ) ) ;
#283 = CARTESIAN_POINT ( 'NONE',  ( 15.97905337465832432, 0.000000000000000000, 40.00000000000000000 ) ) ;
#284 = ORIENTED_EDGE ( 'NONE', *, *, #258, .F. ) ;
#285 = FACE_OUTER_BOUND ( 'NONE', #251, .T. ) ;
#286 =( NAMED_UNIT ( * ) SI_UNIT ( $, .STERADIAN. ) SOLID_ANGLE_UNIT ( ) );
#287 = ADVANCED_FACE ( 'NONE', ( #406 ), #241, .T. ) ;
#288 = EDGE_LOOP ( 'NONE', ( #366, #308, #88, #164 ) ) ;
#289 = CARTESIAN_POINT ( 'NONE',  ( 13.98952668732916393, 7.874999999999992895, 51.56216485999999577 ) ) ;
#290 = EDGE_LOOP ( 'NONE', ( #196, #86, #22, #9 ) ) ;
#291 = APPLICATION_PROTOCOL_DEFINITION ( 'draft international standard', 'automotive_design', 1998, #92 ) ;
#292 = DIRECTION ( 'NONE',  ( 1.000000000000000000, 0.000000000000000000, 0.000000000000000000 ) ) ;
#293 = AXIS2_PLACEMENT_3D ( 'NONE', #506, #335, #295 ) ;
#294 = SURFACE_STYLE_USAGE ( .BOTH. , #69 ) ;
#295 = DIRECTION ( 'NONE',  ( 0.000000000000000000, 0.000000000000000000, -1.000000000000000000 ) ) ;
#296 = CARTESIAN_POINT ( 'NONE',  ( 15.97905337465832432, 0.000000000000000000, 0.000000000000000000 ) ) ;
#297 =( NAMED_UNIT ( * ) SI_UNIT ( $, .STERADIAN. ) SOLID_ANGLE_UNIT ( ) );
#298 = PRODUCT_DEFINITION_SHAPE ( 'NONE', 'NONE',  #334 ) ;
#299 = CARTESIAN_POINT ( 'NONE',  ( 27.98952668732916038, 7.874999999999992895, 54.56216485999999577 ) ) ;
#300 = ORIENTED_EDGE ( 'NONE', *, *, #143, .T. ) ;
#301 = LINE ( 'NONE', #434, #147 ) ;
#302 = DIRECTION ( 'NONE',  ( -1.000000000000000000, -0.000000000000000000, -0.000000000000000000 ) ) ;
#303 = EDGE_CURVE ( 'NONE', #93, #232, #396, .T. ) ;
#304 = VECTOR ( 'NONE', #302, 1000.000000000000000 ) ;
#305 = CARTESIAN_POINT ( 'NONE',  ( 13.98952668732916393, 7.874999999999992895, 54.56216485999999577 ) ) ;
#306 = DIRECTION ( 'NONE',  ( 1.000000000000000000, 0.000000000000000000, 0.000000000000000000 ) ) ;
#307 = PLANE ( 'NONE',  #280 ) ;
#308 = ORIENTED_EDGE ( 'NONE', *, *, #361, .T. ) ;
#309 = DIRECTION ( 'NONE',  ( -0.000000000000000000, -0.000000000000000000, -1.000000000000000000 ) ) ;
#310 = CARTESIAN_POINT ( 'NONE',  ( 27.98952668732916038, 7.874999999999992895, 50.56216485999999577 ) ) ;
#311 = VECTOR ( 'NONE', #248, 1000.000000000000000 ) ;
#312 = FILL_AREA_STYLE_COLOUR ( '', #107 ) ;
#313 = AXIS2_PLACEMENT_3D ( 'NONE', #275, #306, #314 ) ;
#314 = DIRECTION ( 'NONE',  ( 0.000000000000000000, 0.000000000000000000, -1.000000000000000000 ) ) ;
#315 = DIRECTION ( 'NONE',  ( 0.000000000000000000, 1.000000000000000000, 0.000000000000000000 ) ) ;
#316 = CYLINDRICAL_SURFACE ( 'NONE', #446, 4.000000000000003553 ) ;
#317 = ORIENTED_EDGE ( 'NONE', *, *, #378, .F. ) ;
#318 = EDGE_CURVE ( 'NONE', #80, #236, #320, .T. ) ;
#319 =( GEOMETRIC_REPRESENTATION_CONTEXT ( 3 ) GLOBAL_UNCERTAINTY_ASSIGNED_CONTEXT ( ( #339 ) ) GLOBAL_UNIT_ASSIGNED_CONTEXT ( ( #513, #504, #297 ) ) REPRESENTATION_CONTEXT ( 'NONE', 'WORKASPACE' ) );
#320 = CIRCLE ( 'NONE', #293, 3.000000000000002665 ) ;
#321 = ORIENTED_EDGE ( 'NONE', *, *, #173, .T. ) ;
#322 = EDGE_LOOP ( 'NONE', ( #353, #205, #442, #134 ) ) ;
#323 = EDGE_CURVE ( 'NONE', #152, #473, #217, .T. ) ;
#324 = DIRECTION ( 'NONE',  ( -0.000000000000000000, -0.000000000000000000, -1.000000000000000000 ) ) ;
#325 = MANIFOLD_SOLID_BREP ( 'Boss-Extrude2', #229 ) ;
#326 = FILL_AREA_STYLE ('',( #257 ) ) ;
#327 = CIRCLE ( 'NONE', #28, 3.000000000000002665 ) ;
#328 = ORIENTED_EDGE ( 'NONE', *, *, #15, .F. ) ;
#329 = AXIS2_PLACEMENT_3D ( 'NONE', #299, #98, #215 ) ;
#330 = EDGE_LOOP ( 'NONE', ( #459, #135, #110, #431 ) ) ;
#331 = DIRECTION ( 'NONE',  ( 1.000000000000000000, -0.000000000000000000, -0.000000000000000000 ) ) ;
#332 = ORIENTED_EDGE ( 'NONE', *, *, #51, .T. ) ;
#333 = FILL_AREA_STYLE_COLOUR ( '', #502 ) ;
#334 = PRODUCT_DEFINITION ( 'UNKNOWN', '', #395, #369 ) ;
#335 = DIRECTION ( 'NONE',  ( 1.000000000000000000, 0.000000000000000000, 0.000000000000000000 ) ) ;
#336 = CIRCLE ( 'NONE', #213, 4.000000000000003553 ) ;
#337 = AXIS2_PLACEMENT_3D ( 'NONE', #351, #524, #428 ) ;
#338 = PRESENTATION_LAYER_ASSIGNMENT (  '', '', ( #39 ) ) ;
#339 = UNCERTAINTY_MEASURE_WITH_UNIT (LENGTH_MEASURE( 1.000000000000000082E-05 ), #513, 'distance_accuracy_value', 'NONE');
#340 = PRESENTATION_STYLE_ASSIGNMENT (( #66 ) ) ;
#341 = CARTESIAN_POINT ( 'NONE',  ( 27.98952668732916038, 7.874999999999992895, 51.56216485999999577 ) ) ;
#342 = EDGE_CURVE ( 'NONE', #11, #243, #336, .T. ) ;
#343 = FILL_AREA_STYLE ('',( #212 ) ) ;
#344 = ORIENTED_EDGE ( 'NONE', *, *, #318, .T. ) ;
#345 = SURFACE_STYLE_USAGE ( .BOTH. , #33 ) ;
#346 = CARTESIAN_POINT ( 'NONE',  ( 15.97905337465832432, 0.000000000000000000, 40.00000000000000000 ) ) ;
#347 = AXIS2_PLACEMENT_3D ( 'NONE', #78, #114, #154 ) ;
#348 = AXIS2_PLACEMENT_3D ( 'NONE', #50, #197, #363 ) ;
#349 = CARTESIAN_POINT ( 'NONE',  ( 4.989526687329160382, 7.874999999999992895, 40.00000000000000711 ) ) ;
#350 = CARTESIAN_POINT ( 'NONE',  ( 10.24652218496568956, 15.74999999999998579, 40.00000000000000000 ) ) ;
#351 = CARTESIAN_POINT ( 'NONE',  ( 13.98952668732916393, 7.874999999999992895, 54.56216485999999577 ) ) ;
#352 = SURFACE_STYLE_USAGE ( .BOTH. , #389 ) ;
#353 = ORIENTED_EDGE ( 'NONE', *, *, #87, .T. ) ;
#354 =( NAMED_UNIT ( * ) PLANE_ANGLE_UNIT ( ) SI_UNIT ( $, .RADIAN. ) );
#355 = ORIENTED_EDGE ( 'NONE', *, *, #2, .T. ) ;
#356 = CIRCLE ( 'NONE', #238, 3.000000000000000888 ) ;
#357 = PRESENTATION_STYLE_ASSIGNMENT (( #345 ) ) ;
#358 = DIRECTION ( 'NONE',  ( 0.000000000000000000, 0.000000000000000000, 1.000000000000000000 ) ) ;
#359 = DIRECTION ( 'NONE',  ( -1.000000000000000000, -0.000000000000000000, -0.000000000000000000 ) ) ;
#360 = ORIENTED_EDGE ( 'NONE', *, *, #58, .F. ) ;
#361 = EDGE_CURVE ( 'NONE', #399, #521, #484, .T. ) ;
#362 = EDGE_LOOP ( 'NONE', ( #202, #53 ) ) ;
#363 = DIRECTION ( 'NONE',  ( 0.000000000000000000, 0.000000000000000000, -1.000000000000000000 ) ) ;
#364 = ORIENTED_EDGE ( 'NONE', *, *, #193, .F. ) ;
#365 =( NAMED_UNIT ( * ) PLANE_ANGLE_UNIT ( ) SI_UNIT ( $, .RADIAN. ) );
#366 = ORIENTED_EDGE ( 'NONE', *, *, #234, .F. ) ;
#367 = EDGE_CURVE ( 'NONE', #129, #450, #64, .T. ) ;
#368 = CARTESIAN_POINT ( 'NONE',  ( 27.98952668732916038, 7.874999999999992895, 54.56216485999999577 ) ) ;
#369 = PRODUCT_DEFINITION_CONTEXT ( 'detailed design', #1, 'design' ) ;
#370 = CARTESIAN_POINT ( 'NONE',  ( 15.97905337465832432, 0.000000000000000000, 40.00000000000000000 ) ) ;
#371 = DIRECTION ( 'NONE',  ( 1.000000000000000000, 0.000000000000000000, 0.000000000000000000 ) ) ;
#372 =( NAMED_UNIT ( * ) PLANE_ANGLE_UNIT ( ) SI_UNIT ( $, .RADIAN. ) );
#373 = LINE ( 'NONE', #282, #311 ) ;
#374 = SURFACE_SIDE_STYLE ('',( #16 ) ) ;
#375 = AXIS2_PLACEMENT_3D ( 'NONE', #70, #183, #388 ) ;
#376 = DIRECTION ( 'NONE',  ( 0.000000000000000000, 1.000000000000000000, -0.000000000000000000 ) ) ;
#377 = DIRECTION ( 'NONE',  ( 0.000000000000000000, 1.000000000000000000, 0.000000000000000000 ) ) ;
#378 = EDGE_CURVE ( 'NONE', #11, #208, #259, .T. ) ;
#379 = FACE_OUTER_BOUND ( 'NONE', #330, .T. ) ;
#380 = SURFACE_STYLE_FILL_AREA ( #326 ) ;
#381 = PRESENTATION_STYLE_ASSIGNMENT (( #264 ) ) ;
#382 = DIRECTION ( 'NONE',  ( 1.000000000000000000, 0.000000000000000000, 0.000000000000000000 ) ) ;
#383 = PRESENTATION_LAYER_ASSIGNMENT (  '', '', ( #476 ) ) ;
#384 = ADVANCED_FACE ( 'NONE', ( #501 ), #104, .T. ) ;
#385 = FACE_OUTER_BOUND ( 'NONE', #167, .T. ) ;
#386 = CARTESIAN_POINT ( 'NONE',  ( 0.000000000000000000, 0.000000000000000000, 40.00000000000000000 ) ) ;
#387 = ORIENTED_EDGE ( 'NONE', *, *, #303, .T. ) ;
#388 = DIRECTION ( 'NONE',  ( 0.000000000000000000, 0.000000000000000000, -1.000000000000000000 ) ) ;
#389 = SURFACE_SIDE_STYLE ('',( #42 ) ) ;
#390 = VERTEX_POINT ( 'NONE', #289 ) ;
#391 = UNCERTAINTY_MEASURE_WITH_UNIT (LENGTH_MEASURE( 1.000000000000000082E-05 ), #403, 'distance_accuracy_value', 'NONE');
#392 = CARTESIAN_POINT ( 'NONE',  ( 5.732531189692524620, 15.74999999999998579, 40.00000000000000000 ) ) ;
#393 = DIRECTION ( 'NONE',  ( -1.000000000000000000, -0.000000000000000000, -0.000000000000000000 ) ) ;
#394 = VERTEX_POINT ( 'NONE', #418 ) ;
#395 = PRODUCT_DEFINITION_FORMATION_WITH_SPECIFIED_SOURCE ( 'ANY', '', #471, .NOT_KNOWN. ) ;
#396 = CIRCLE ( 'NONE', #228, 9.000000000000001776 ) ;
#397 = DIRECTION ( 'NONE',  ( 0.000000000000000000, 0.000000000000000000, 1.000000000000000000 ) ) ;
#398 = FACE_OUTER_BOUND ( 'NONE', #227, .T. ) ;
#399 = VERTEX_POINT ( 'NONE', #349 ) ;
#400 =( NAMED_UNIT ( * ) SI_UNIT ( $, .STERADIAN. ) SOLID_ANGLE_UNIT ( ) );
#401 = CARTESIAN_POINT ( 'NONE',  ( 7.989526687329162158, 7.874999999999992895, 40.00000000000000711 ) ) ;
#402 = EDGE_CURVE ( 'NONE', #208, #394, #455, .T. ) ;
#403 =( LENGTH_UNIT ( ) NAMED_UNIT ( * ) SI_UNIT ( .MILLI., .METRE. ) );
#404 = VECTOR ( 'NONE', #292, 1000.000000000000000 ) ;
#405 = ORIENTED_EDGE ( 'NONE', *, *, #323, .T. ) ;
#406 = FACE_OUTER_BOUND ( 'NONE', #166, .T. ) ;
#407 = ORIENTED_EDGE ( 'NONE', *, *, #469, .F. ) ;
#408 = DIRECTION ( 'NONE',  ( 1.000000000000000000, 0.000000000000000000, 0.000000000000000000 ) ) ;
#409 = ADVANCED_FACE ( 'NONE', ( #385 ), #118, .T. ) ;
#410 = EDGE_LOOP ( 'NONE', ( #61, #175, #514, #462 ) ) ;
#411 = MECHANICAL_DESIGN_GEOMETRIC_PRESENTATION_REPRESENTATION (  '', ( #495 ), #522 ) ;
#412 = PRESENTATION_LAYER_ASSIGNMENT (  '', '', ( #55 ) ) ;
#413 = VECTOR ( 'NONE', #105, 1000.000000000000114 ) ;
#414 = CARTESIAN_POINT ( 'NONE',  ( 28.98952668732916038, 7.874999999999992895, 50.56216485999999577 ) ) ;
#415 = VERTEX_POINT ( 'NONE', #74 ) ;
#416 = LINE ( 'NONE', #452, #201 ) ;
#417 = EDGE_LOOP ( 'NONE', ( #12, #328, #265, #207 ) ) ;
#418 = CARTESIAN_POINT ( 'NONE',  ( 27.98952668732916038, 7.874999999999992895, 58.56216486000000288 ) ) ;
#419 = APPLICATION_PROTOCOL_DEFINITION ( 'draft international standard', 'automotive_design', 1998, #1 ) ;
#420 = EDGE_LOOP ( 'NONE', ( #405, #125, #360, #192 ) ) ;
#421 = FILL_AREA_STYLE_COLOUR ( '', #517 ) ;
#422 = CIRCLE ( 'NONE', #160, 3.000000000000000888 ) ;
#423 = VECTOR ( 'NONE', #138, 1000.000000000000114 ) ;
#424 = SURFACE_STYLE_USAGE ( .BOTH. , #169 ) ;
#425 = DIRECTION ( 'NONE',  ( 0.000000000000000000, 0.000000000000000000, 1.000000000000000000 ) ) ;
#426 = CARTESIAN_POINT ( 'NONE',  ( 13.98952668732916393, 7.874999999999992895, 57.56216486000000288 ) ) ;
#427 = EDGE_CURVE ( 'NONE', #450, #152, #220, .T. ) ;
#428 = DIRECTION ( 'NONE',  ( 0.000000000000000000, 0.000000000000000000, -1.000000000000000000 ) ) ;
#429 = VECTOR ( 'NONE', #324, 1000.000000000000000 ) ;
#430 = CARTESIAN_POINT ( 'NONE',  ( 15.97905337465832432, 0.000000000000000000, 40.00000000000000000 ) ) ;
#431 = ORIENTED_EDGE ( 'NONE', *, *, #15, .T. ) ;
#432 = DIRECTION ( 'NONE',  ( 0.000000000000000000, 0.000000000000000000, -1.000000000000000000 ) ) ;
#433 = CARTESIAN_POINT ( 'NONE',  ( 13.98952668732916038, 7.874999999999992895, 48.56216486000000288 ) ) ;
#434 = CARTESIAN_POINT ( 'NONE',  ( 0.000000000000000000, 0.000000000000000000, 40.00000000000000000 ) ) ;
#435 = EDGE_CURVE ( 'NONE', #394, #208, #63, .T. ) ;
#436 = CARTESIAN_POINT ( 'NONE',  ( 10.98952668732916393, 7.874999999999992895, 40.00000000000000711 ) ) ;
#437 = COLOUR_RGB ( '',1.000000000000000000, 1.000000000000000000, 1.000000000000000000 ) ;
#438 =( GEOMETRIC_REPRESENTATION_CONTEXT ( 3 ) GLOBAL_UNCERTAINTY_ASSIGNED_CONTEXT ( ( #242 ) ) GLOBAL_UNIT_ASSIGNED_CONTEXT ( ( #260, #354, #400 ) ) REPRESENTATION_CONTEXT ( 'NONE', 'WORKASPACE' ) );
#439 = DIRECTION ( 'NONE',  ( 1.000000000000000000, 0.000000000000000000, 0.000000000000000000 ) ) ;
#440 = PRESENTATION_STYLE_ASSIGNMENT (( #352 ) ) ;
#441 = DIRECTION ( 'NONE',  ( -0.3420201433256662704, 0.9396926207859093161, 0.000000000000000000 ) ) ;
#442 = ORIENTED_EDGE ( 'NONE', *, *, #519, .F. ) ;
#443 = EDGE_CURVE ( 'NONE', #40, #473, #301, .T. ) ;
#444 = DIRECTION ( 'NONE',  ( -1.000000000000000000, 0.000000000000000000, 0.000000000000000000 ) ) ;
#445 = VECTOR ( 'NONE', #97, 1000.000000000000000 ) ;
#446 = AXIS2_PLACEMENT_3D ( 'NONE', #269, #359, #226 ) ;
#447 =( NAMED_UNIT ( * ) SI_UNIT ( $, .STERADIAN. ) SOLID_ANGLE_UNIT ( ) );
#448 =( GEOMETRIC_REPRESENTATION_CONTEXT ( 3 ) GLOBAL_UNCERTAINTY_ASSIGNED_CONTEXT ( ( #247 ) ) GLOBAL_UNIT_ASSIGNED_CONTEXT ( ( #210, #463, #509 ) ) REPRESENTATION_CONTEXT ( 'NONE', 'WORKASPACE' ) );
#449 = DIRECTION ( 'NONE',  ( 0.000000000000000000, 0.000000000000000000, -1.000000000000000000 ) ) ;
#450 = VERTEX_POINT ( 'NONE', #224 ) ;
#451 = ORIENTED_EDGE ( 'NONE', *, *, #193, .T. ) ;
#452 = CARTESIAN_POINT ( 'NONE',  ( 10.24652218496568956, 15.74999999999998579, 0.000000000000000000 ) ) ;
#453 = ORIENTED_EDGE ( 'NONE', *, *, #402, .T. ) ;
#454 = VECTOR ( 'NONE', #266, 1000.000000000000000 ) ;
#455 = CIRCLE ( 'NONE', #375, 4.000000000000003553 ) ;
#456 = CARTESIAN_POINT ( 'NONE',  ( 13.98952668732916038, 7.874999999999992895, 48.56216486000000288 ) ) ;
#457 = COLOUR_RGB ( '',1.000000000000000000, 1.000000000000000000, 1.000000000000000000 ) ;
#458 = ORIENTED_EDGE ( 'NONE', *, *, #87, .F. ) ;
#459 = ORIENTED_EDGE ( 'NONE', *, *, #258, .T. ) ;
#460 = ORIENTED_EDGE ( 'NONE', *, *, #378, .T. ) ;
#461 = PRODUCT_CONTEXT ( 'NONE', #92, 'mechanical' ) ;
#462 = ORIENTED_EDGE ( 'NONE', *, *, #58, .T. ) ;
#463 =( NAMED_UNIT ( * ) PLANE_ANGLE_UNIT ( ) SI_UNIT ( $, .RADIAN. ) );
#464 = FACE_OUTER_BOUND ( 'NONE', #5, .T. ) ;
#465 = AXIS2_PLACEMENT_3D ( 'NONE', #239, #49, #449 ) ;
#466 = DIRECTION ( 'NONE',  ( 1.000000000000000000, 0.000000000000000000, 0.000000000000000000 ) ) ;
#467 = AXIS2_PLACEMENT_3D ( 'NONE', #191, #35, #159 ) ;
#468 = DIRECTION ( 'NONE',  ( 1.000000000000000000, 0.000000000000000000, -0.000000000000000000 ) ) ;
#469 = EDGE_CURVE ( 'NONE', #415, #155, #477, .T. ) ;
#470 = CARTESIAN_POINT ( 'NONE',  ( 7.989526687329162158, 7.874999999999992895, 40.00000000000000711 ) ) ;
#471 = PRODUCT ( 'lock', 'lock', '', ( #461 ) ) ;
#472 = CARTESIAN_POINT ( 'NONE',  ( 5.732531189692524620, 15.74999999999998579, 40.00000000000000000 ) ) ;
#473 = VERTEX_POINT ( 'NONE', #230 ) ;
#474 = FACE_OUTER_BOUND ( 'NONE', #420, .T. ) ;
#475 = CARTESIAN_POINT ( 'NONE',  ( 4.989526687329160382, 7.874999999999992895, 48.56216486000000998 ) ) ;
#476 = STYLED_ITEM ( 'NONE', ( #102 ), #113 ) ;
#477 = LINE ( 'NONE', #153, #185 ) ;
#478 = ORIENTED_EDGE ( 'NONE', *, *, #318, .F. ) ;
#479 = ADVANCED_FACE ( 'NONE', ( #233, #72 ), #75, .T. ) ;
#480 = DIRECTION ( 'NONE',  ( 0.9396926207859114255, -0.3420201433256604417, 0.000000000000000000 ) ) ;
#481 = ADVANCED_BREP_SHAPE_REPRESENTATION ( 'lock', ( #325, #263 ), #116 ) ;
#482 = DIRECTION ( 'NONE',  ( 0.000000000000000000, 1.000000000000000000, 0.000000000000000000 ) ) ;
#483 = CARTESIAN_POINT ( 'NONE',  ( 5.732531189692524620, 15.74999999999998579, 0.000000000000000000 ) ) ;
#484 = CIRCLE ( 'NONE', #41, 3.000000000000000888 ) ;
#485 = EDGE_LOOP ( 'NONE', ( #458, #127, #284, #407 ) ) ;
#486 = MECHANICAL_DESIGN_GEOMETRIC_PRESENTATION_REPRESENTATION (  '', ( #39 ), #90 ) ;
#487 = DIRECTION ( 'NONE',  ( 0.000000000000000000, 0.000000000000000000, -1.000000000000000000 ) ) ;
#488 = ADVANCED_FACE ( 'NONE', ( #474 ), #156, .F. ) ;
#489 = DIRECTION ( 'NONE',  ( -4.052067448691492018E-16, 0.000000000000000000, 1.000000000000000000 ) ) ;
#490 = DIRECTION ( 'NONE',  ( 1.000000000000000000, 0.000000000000000000, 0.000000000000000000 ) ) ;
#491 = CARTESIAN_POINT ( 'NONE',  ( 28.98952668732916038, 7.874999999999992895, 54.56216485999999577 ) ) ;
#492 = FACE_OUTER_BOUND ( 'NONE', #362, .T. ) ;
#493 = ORIENTED_EDGE ( 'NONE', *, *, #106, .F. ) ;
#494 = VECTOR ( 'NONE', #309, 1000.000000000000000 ) ;
#495 = STYLED_ITEM ( 'NONE', ( #440 ), #216 ) ;
#496 = UNCERTAINTY_MEASURE_WITH_UNIT (LENGTH_MEASURE( 1.000000000000000082E-05 ), #52, 'distance_accuracy_value', 'NONE');
#497 = ORIENTED_EDGE ( 'NONE', *, *, #173, .F. ) ;
#498 = LINE ( 'NONE', #250, #62 ) ;
#499 = ORIENTED_EDGE ( 'NONE', *, *, #34, .T. ) ;
#500 = DIRECTION ( 'NONE',  ( -4.052067448691492018E-16, 0.000000000000000000, 1.000000000000000000 ) ) ;
#501 = FACE_OUTER_BOUND ( 'NONE', #290, .T. ) ;
#502 = COLOUR_RGB ( '',1.000000000000000000, 1.000000000000000000, 1.000000000000000000 ) ;
#503 = EDGE_LOOP ( 'NONE', ( #344, #332 ) ) ;
#504 =( NAMED_UNIT ( * ) PLANE_ANGLE_UNIT ( ) SI_UNIT ( $, .RADIAN. ) );
#505 = DIRECTION ( 'NONE',  ( 0.000000000000000000, 0.000000000000000000, 1.000000000000000000 ) ) ;
#506 = CARTESIAN_POINT ( 'NONE',  ( 27.98952668732916038, 7.874999999999992895, 54.56216485999999577 ) ) ;
#507 = FACE_OUTER_BOUND ( 'NONE', #288, .T. ) ;
#508 = EDGE_CURVE ( 'NONE', #390, #232, #327, .T. ) ;
#509 =( NAMED_UNIT ( * ) SI_UNIT ( $, .STERADIAN. ) SOLID_ANGLE_UNIT ( ) );
#510 = MECHANICAL_DESIGN_GEOMETRIC_PRESENTATION_REPRESENTATION (  '', ( #37 ), #319 ) ;
#511 = AXIS2_PLACEMENT_3D ( 'NONE', #430, #376, #505 ) ;
#512 = LINE ( 'NONE', #144, #304 ) ;
#513 =( LENGTH_UNIT ( ) NAMED_UNIT ( * ) SI_UNIT ( .MILLI., .METRE. ) );
#514 = ORIENTED_EDGE ( 'NONE', *, *, #367, .T. ) ;
#515 =( NAMED_UNIT ( * ) SI_UNIT ( $, .STERADIAN. ) SOLID_ANGLE_UNIT ( ) );
#516 = DIRECTION ( 'NONE',  ( -0.000000000000000000, -0.000000000000000000, -1.000000000000000000 ) ) ;
#517 = COLOUR_RGB ( '',1.000000000000000000, 1.000000000000000000, 1.000000000000000000 ) ;
#518 = CARTESIAN_POINT ( 'NONE',  ( 10.24652218496568956, 15.74999999999998579, 0.000000000000000000 ) ) ;
#519 = EDGE_CURVE ( 'NONE', #40, #246, #111, .T. ) ;
#520 = AXIS2_PLACEMENT_3D ( 'NONE', #491, #393, #38 ) ;
#521 = VERTEX_POINT ( 'NONE', #108 ) ;
#522 =( GEOMETRIC_REPRESENTATION_CONTEXT ( 3 ) GLOBAL_UNCERTAINTY_ASSIGNED_CONTEXT ( ( #496 ) ) GLOBAL_UNIT_ASSIGNED_CONTEXT ( ( #52, #372, #286 ) ) REPRESENTATION_CONTEXT ( 'NONE', 'WORKASPACE' ) );
#523 = DIRECTION ( 'NONE',  ( -4.052067448691492018E-16, 0.000000000000000000, 1.000000000000000000 ) ) ;
#524 = DIRECTION ( 'NONE',  ( 1.000000000000000000, 0.000000000000000000, 0.000000000000000000 ) ) ;
ENDSEC;
END-ISO-10303-21;
